<svg id='Flag_of_Lower_Saxony_on_Land_24' width='24' height='24' viewBox='0 0 24 24' xmlns='http://www.w3.org/2000/svg' xmlns:xlink='http://www.w3.org/1999/xlink'><rect width='24' height='24' stroke='none' fill='#000000' opacity='0'/>


<g transform="matrix(0.42 0 0 0.42 12 12)" >
<g style="" >
<g transform="matrix(1 0 0 1 0 0)" >
<path style="stroke: none; stroke-width: 1; stroke-dasharray: none; stroke-linecap: butt; stroke-dashoffset: 0; stroke-linejoin: miter; stroke-miterlimit: 4; fill: rgb(253,216,53); fill-rule: nonzero; opacity: 1;" transform=" translate(-24, -24)" d="M 2 9 L 46 9 L 46 39 L 2 39 z" stroke-linecap="round" />
</g>
<g transform="matrix(1 0 0 1 0 -5)" >
<path style="stroke: none; stroke-width: 1; stroke-dasharray: none; stroke-linecap: butt; stroke-dashoffset: 0; stroke-linejoin: miter; stroke-miterlimit: 4; fill: rgb(255,61,0); fill-rule: nonzero; opacity: 1;" transform=" translate(-24, -19)" d="M 2 9 L 46 9 L 46 29 L 2 29 z" stroke-linecap="round" />
</g>
<g transform="matrix(1 0 0 1 0 -10)" >
<path style="stroke: none; stroke-width: 1; stroke-dasharray: none; stroke-linecap: butt; stroke-dashoffset: 0; stroke-linejoin: miter; stroke-miterlimit: 4; fill: rgb(33,33,33); fill-rule: nonzero; opacity: 1;" transform=" translate(-24, -14)" d="M 2 9 L 46 9 L 46 19 L 2 19 z" stroke-linecap="round" />
</g>
<g transform="matrix(1 0 0 1 -1.5 0)" >
<path style="stroke: none; stroke-width: 1; stroke-dasharray: none; stroke-linecap: butt; stroke-dashoffset: 0; stroke-linejoin: miter; stroke-miterlimit: 4; fill: rgb(255,61,0); fill-rule: nonzero; opacity: 1;" transform=" translate(-22.5, -24)" d="M 22.5 33.75 C 17.944 33.75 14.25 29.947 14.25 25.256999999999998 L 14.25 14.25 L 30.75 14.25 L 30.75 25.256999999999998 C 30.75 29.948 27.057 33.75 22.5 33.75" stroke-linecap="round" />
</g>
<g transform="matrix(1 0 0 1 -1.5 0)" >
<path style="stroke: none; stroke-width: 1; stroke-dasharray: none; stroke-linecap: butt; stroke-dashoffset: 0; stroke-linejoin: miter; stroke-miterlimit: 4; fill: rgb(33,33,33); fill-rule: nonzero; opacity: 1;" transform=" translate(-22.5, -24)" d="M 31 25.287 C 31 30.099 27.194 34 22.5 34 C 17.805 34 14 30.099 14 25.286 L 14 14 L 31 14 L 31 25.287 M 22.5 33.59 C 26.974 33.59 30.601 29.842000000000002 30.601 25.257000000000005 L 30.601 14.411 L 14.399 14.411 L 14.399 25.287 C 14.399 29.872 18.026 33.59 22.5 33.59 L 22.5 33.59 z" stroke-linecap="round" />
</g>
<g transform="matrix(1 0 0 1 -1.35 -0.94)" >
<path style="stroke: none; stroke-width: 1; stroke-dasharray: none; stroke-linecap: butt; stroke-dashoffset: 0; stroke-linejoin: miter; stroke-miterlimit: 4; fill: rgb(33,33,33); fill-rule: nonzero; opacity: 1;" transform=" translate(-22.65, -23.06)" d="M 29.788 23.863 C 29.546 23.503 29.945 23.155 29.91 22.78 C 30.003 22.442 29.808 22.123 29.615 21.872 C 29.721 21.454 29.709 20.941 29.343 20.655 C 29.163 20.438000000000002 28.847 20.46 28.595 20.43 C 28.387 19.979 27.747 20.014 27.351 20.197 C 26.826 20.403 26.537 21.163 26.91 21.619999999999997 C 27.149 21.734999999999996 27.3 22.110999999999997 27.018 22.264999999999997 C 26.761 22.470999999999997 26.416 22.235999999999997 26.188000000000002 22.092999999999996 C 25.727000000000004 21.712999999999997 25.116000000000003 21.501999999999995 24.508000000000003 21.558999999999997 C 23.866000000000003 21.63 23.208000000000002 21.479999999999997 22.644000000000002 21.182999999999996 C 22.470000000000002 21.082999999999995 22.537000000000003 21.006999999999998 22.649 20.887999999999995 C 22.676000000000002 20.792999999999996 22.748 20.740999999999996 22.782 20.657999999999994 L 22.782 20.657999999999994 C 22.942 20.615999999999993 22.951 20.315999999999995 22.914 20.162999999999993 C 22.778000000000002 19.914999999999992 23.137 19.697999999999993 22.975 19.414999999999992 C 22.968 19.23999999999999 22.744 19.135999999999992 22.864 18.967999999999993 C 22.944 18.64099999999999 22.8 18.286999999999992 22.539 18.092999999999993 C 22.536 17.80099999999999 22.524 17.39399999999999 22.189 17.284999999999993 C 21.965 17.258999999999993 22.058 17.036999999999992 21.964 16.895999999999994 C 21.865 16.769999999999992 21.718 16.731999999999992 21.680999999999997 16.562999999999995 C 21.516999999999996 16.269999999999996 21.067999999999998 16.511999999999997 20.926 16.221999999999994 C 20.791999999999998 15.969999999999994 20.790999999999997 15.667999999999994 20.712999999999997 15.409999999999995 C 20.432999999999996 15.337999999999996 20.354 15.682999999999995 20.295999999999996 15.876999999999995 C 20.155999999999995 15.785999999999996 20.475999999999996 15.493999999999996 20.098999999999997 15.621999999999995 C 20.177999999999997 15.288999999999994 19.83 15.424999999999995 19.759999999999998 15.608999999999995 C 19.744999999999997 15.848999999999995 19.468999999999998 15.717999999999995 19.322 15.825999999999995 C 19.13 15.909999999999995 19.125 16.206999999999994 19.255 16.339999999999996 C 19.083 16.449999999999996 18.721999999999998 16.390999999999995 18.712999999999997 16.686999999999998 C 18.488999999999997 16.869999999999997 18.259999999999998 17.025999999999996 18.037999999999997 17.220999999999997 C 17.824999999999996 17.245999999999995 17.711999999999996 17.441999999999997 17.554999999999996 17.562999999999995 C 17.440999999999995 17.797999999999995 17.625999999999998 18.030999999999995 17.549999999999997 18.278999999999996 C 17.503999999999998 18.660999999999998 18.044999999999998 18.455999999999996 18.084999999999997 18.687999999999995 C 18.169999999999998 18.937999999999995 18.479999999999997 18.791999999999994 18.665999999999997 18.836999999999996 C 18.942999999999998 18.805999999999997 18.907999999999998 18.328999999999997 19.226999999999997 18.450999999999997 C 19.399999999999995 18.519999999999996 19.577999999999996 18.395999999999997 19.726999999999997 18.392999999999997 C 19.935999999999996 18.653999999999996 19.708999999999996 19.014999999999997 19.535999999999998 19.237 C 19.246999999999996 19.557 18.901999999999997 19.909 18.901999999999997 20.378 C 18.784999999999997 20.562 18.548 20.66 18.479999999999997 20.889 C 18.384999999999998 20.991 18.476999999999997 21.409 18.256999999999998 21.195 C 17.991 21.059 17.669999999999998 21.024 17.496 20.754 C 17.253 20.688000000000002 16.973 20.688000000000002 16.723 20.693 C 16.511 20.737000000000002 16.435 20.949 16.361 21.115000000000002 C 16.111 21.401000000000003 15.867 21.757 15.533000000000001 21.973000000000003 C 15.410000000000002 22.114 15.175 22.179000000000002 15.167000000000002 22.395000000000003 C 15.031000000000002 22.653000000000002 15.216000000000001 22.944000000000003 15.149000000000001 23.227000000000004 C 15.123000000000001 23.479000000000003 15.115 23.771000000000004 15.422 23.836000000000006 C 15.574 23.958000000000006 15.770000000000001 24.184000000000005 15.967 24.078000000000007 C 16.108 23.716000000000008 16.277 23.309000000000008 16.153000000000002 22.923000000000005 C 16.033 22.838000000000005 15.978000000000002 22.701000000000004 15.831000000000003 22.656000000000006 C 15.773000000000003 22.462000000000007 16.007 22.299000000000007 16.090000000000003 22.539000000000005 C 16.442000000000004 22.479000000000006 16.509000000000004 22.042000000000005 16.67 21.772000000000006 C 16.756 21.444000000000006 17.235000000000003 21.430000000000007 17.368000000000002 21.728000000000005 C 17.539 21.971000000000004 17.758000000000003 22.231000000000005 17.94 22.445000000000004 C 17.616 22.445000000000004 17.313000000000002 22.315000000000005 17.031000000000002 22.186000000000003 C 16.795 22.117000000000004 16.671000000000003 22.324000000000005 16.589000000000002 22.498000000000005 C 16.354000000000003 22.617000000000004 16.244000000000003 22.918000000000006 16.381000000000004 23.150000000000006 C 16.432000000000002 23.661000000000005 16.449000000000005 24.179000000000006 16.323000000000004 24.676000000000005 C 16.221000000000004 24.946000000000005 16.459000000000003 25.124000000000006 16.451000000000004 25.379000000000005 C 16.472000000000005 25.612000000000005 16.686000000000003 25.743000000000006 16.692000000000004 25.974000000000004 C 16.790000000000003 26.185000000000002 17.077000000000005 26.161000000000005 17.269000000000005 26.266000000000005 C 17.531000000000006 26.379000000000005 17.765000000000004 26.220000000000006 17.667000000000005 25.940000000000005 C 17.652000000000005 25.641000000000005 17.683000000000003 25.240000000000006 17.430000000000007 25.041000000000004 C 17.232000000000006 24.991000000000003 16.864000000000008 25.001000000000005 17.005000000000006 24.679000000000006 C 17.191000000000006 24.602000000000004 17.377000000000006 24.550000000000004 17.252000000000006 24.299000000000007 C 17.121000000000006 23.968000000000007 16.948000000000008 23.627000000000006 17.049000000000007 23.256000000000007 C 17.163000000000007 22.999000000000006 17.544000000000008 23.16400000000001 17.660000000000007 23.346000000000007 C 18.058000000000007 23.76300000000001 18.50400000000001 24.200000000000006 19.104000000000006 24.299000000000007 C 19.399000000000008 24.313000000000006 19.639000000000006 24.68700000000001 19.949000000000005 24.53000000000001 C 20.019000000000005 24.311000000000007 20.227000000000004 24.349000000000007 20.402000000000005 24.44700000000001 C 20.740000000000006 24.588000000000008 21.036000000000005 24.82200000000001 21.402000000000005 24.89600000000001 C 21.991000000000003 25.09900000000001 22.629000000000005 25.05600000000001 23.233000000000004 24.946000000000012 C 23.545000000000005 24.915000000000013 23.845000000000002 25.09600000000001 23.974000000000004 25.368000000000013 C 24.153000000000002 25.616000000000014 24.473000000000003 25.516000000000012 24.724000000000004 25.568000000000012 C 24.884000000000004 25.876000000000012 25.263000000000005 25.821000000000012 25.558000000000003 25.857000000000014 C 25.981 26.076000000000015 26.149000000000004 26.570000000000014 26.328000000000003 26.980000000000015 C 26.554000000000002 27.469000000000015 26.534000000000002 28.091000000000015 26.176000000000002 28.503000000000014 C 26.076 28.726000000000013 25.702 28.707000000000015 25.728 29.006000000000014 C 25.668000000000003 29.265000000000015 25.381 29.508000000000013 25.423000000000002 29.811000000000014 C 25.714000000000002 29.923000000000012 26.074 29.852000000000015 26.376 29.781000000000013 C 26.695 29.729000000000013 27.045 29.490000000000013 26.958000000000002 29.119000000000014 C 26.814000000000004 28.936000000000014 26.909000000000002 28.729000000000013 27.07 28.594000000000015 C 27.134 28.434000000000015 27.222 28.311000000000014 27.408 28.332000000000015 C 27.650000000000002 28.418000000000013 27.545 28.032000000000014 27.531000000000002 27.893000000000015 C 27.497000000000003 27.646000000000015 27.301000000000002 27.462000000000014 27.239 27.215000000000014 C 27.19 27.052000000000014 27.053 26.569000000000013 27.322 26.848000000000013 C 27.634999999999998 27.163000000000014 27.904 27.532000000000014 27.965999999999998 27.990000000000013 C 28.081999999999997 28.368000000000013 27.999 28.75900000000001 27.897 29.126000000000012 C 27.794999999999998 29.32900000000001 27.653 29.522000000000013 27.441 29.612000000000013 C 27.371 29.761000000000013 27.323 29.908000000000012 27.221999999999998 30.048000000000012 C 27.159999999999997 30.257000000000012 26.926 30.468000000000014 27.035999999999998 30.682000000000013 C 27.508999999999997 30.767000000000014 28.057999999999996 30.690000000000012 28.427999999999997 30.371000000000013 C 28.587999999999997 30.106000000000012 28.301 29.743000000000013 28.580999999999996 29.523000000000014 C 28.668999999999997 29.346000000000014 28.827999999999996 29.268000000000015 29.021999999999995 29.244000000000014 C 29.276999999999994 29.188000000000013 29.182999999999996 28.818000000000016 29.139999999999993 28.630000000000013 C 28.965999999999994 28.273000000000014 28.764999999999993 27.925000000000015 28.716999999999995 27.519000000000013 C 28.616999999999994 27.261000000000013 28.520999999999994 26.981000000000012 28.566999999999997 26.705000000000013 C 28.450999999999997 26.321000000000012 27.942999999999998 26.324000000000012 27.749999999999996 26.002000000000013 C 27.593999999999998 25.765000000000015 27.434999999999995 25.52100000000001 27.216999999999995 25.325000000000014 C 27.228999999999996 25.004000000000012 27.347999999999995 24.662000000000013 27.216999999999995 24.336000000000013 C 27.101999999999997 24.026000000000014 27.229999999999997 23.67200000000001 27.094999999999995 23.356000000000012 C 27.065999999999995 23.196000000000012 26.977999999999994 23.049000000000014 26.941999999999997 22.900000000000013 C 27.284999999999997 22.93400000000001 27.634999999999998 22.752000000000013 27.761999999999997 22.433000000000014 C 27.981999999999996 22.223000000000013 28.250999999999998 22.592000000000013 28.061999999999998 22.792000000000016 C 27.933999999999997 22.999000000000017 27.709999999999997 23.180000000000017 27.729 23.458000000000016 C 27.669 23.902000000000015 27.939 24.280000000000015 28.256 24.546000000000017 C 28.419 24.743000000000016 28.336 25.115000000000016 28.059 24.987000000000016 C 28.060000000000002 25.282000000000018 28.442 25.144000000000016 28.582 25.039000000000016 C 28.709 24.796000000000017 28.772000000000002 24.633000000000017 28.735 25.044000000000015 C 28.716 25.191000000000013 28.371 25.372000000000014 28.704 25.324000000000016 C 28.942 25.260000000000016 28.998 24.982000000000017 29.049 24.788000000000014 C 29.014 25.134000000000015 29.221 24.926000000000016 29.224 24.722000000000016 C 29.283 24.685000000000016 29.269000000000002 25.166000000000015 29.183 25.317000000000014 C 29.083 25.529000000000014 28.69 25.713000000000015 28.56 25.455000000000016 C 28.371 25.678000000000015 28.831999999999997 25.825000000000017 29.014999999999997 25.727000000000015 C 29.465999999999998 25.610000000000014 29.752999999999997 25.139000000000014 29.767999999999997 24.694000000000013 C 29.753999999999998 24.491000000000014 29.634999999999998 24.321000000000012 29.554999999999996 24.147000000000013 C 29.768999999999995 24.29700000000001 30.081999999999997 24.263000000000012 30.170999999999996 24.000000000000014 C 30.274 23.639 29.932 24.113 29.788 23.863 z" stroke-linecap="round" />
</g>
<g transform="matrix(1 0 0 1 -0.83 -0.95)" >
<path style="stroke: none; stroke-width: 1; stroke-dasharray: none; stroke-linecap: butt; stroke-dashoffset: 0; stroke-linejoin: miter; stroke-miterlimit: 4; fill: rgb(250,250,250); fill-rule: nonzero; opacity: 1;" transform=" translate(-23.17, -23.05)" d="M 29.278 23.152 C 29.336 22.923000000000002 29.262999999999998 22.626 29.247999999999998 22.444000000000003 C 29.503999999999998 22.671000000000003 29.372999999999998 23.036 29.365999999999996 23.330000000000002 C 29.267999999999997 23.687 29.537999999999997 24.112000000000002 29.914999999999996 24.094 C 29.762999999999995 24.048000000000002 29.629999999999995 23.884 29.586999999999996 23.71 C 29.423999999999996 23.322 29.741999999999997 22.936 29.627999999999997 22.541 C 29.771999999999995 22.835 29.608999999999998 23.147000000000002 29.605999999999998 23.45 C 29.723 23.227 29.808999999999997 22.956 29.813999999999997 22.691 C 29.852999999999998 22.394 29.676999999999996 22.163 29.529999999999998 21.936 C 29.497999999999998 21.611 29.651999999999997 21.229 29.427999999999997 20.939 C 29.272999999999996 20.659 28.965999999999998 20.551 28.657999999999998 20.569 C 28.468999999999998 20.587999999999997 28.488999999999997 20.326999999999998 28.323999999999998 20.279 C 28.016 20.128 27.589999999999996 20.162 27.305999999999997 20.347 C 26.988999999999997 20.515 26.779999999999998 20.899 26.855999999999998 21.258000000000003 C 26.860999999999997 21.535000000000004 27.192999999999998 21.627000000000002 27.249999999999996 21.875000000000004 C 27.401999999999997 22.155000000000005 27.141999999999996 22.465000000000003 26.848999999999997 22.460000000000004 C 26.307999999999996 22.429000000000006 25.960999999999995 21.964000000000006 25.461999999999996 21.813000000000006 C 25.052999999999997 21.633000000000006 24.601999999999997 21.674000000000007 24.169999999999995 21.660000000000007 C 23.484999999999996 21.681000000000008 22.761999999999993 21.470000000000006 22.234999999999996 21.024000000000008 C 22.073999999999995 21.238000000000007 21.960999999999995 20.559000000000008 22.077999999999996 20.79800000000001 C 22.031999999999996 20.62600000000001 21.923999999999996 20.20500000000001 22.069999999999997 20.40000000000001 C 22.246999999999996 20.512000000000008 22.384999999999998 20.70600000000001 22.242999999999995 20.919000000000008 C 22.455999999999996 20.94900000000001 22.475999999999996 20.61200000000001 22.378999999999994 20.47800000000001 C 22.269999999999992 20.39500000000001 22.076999999999995 20.24000000000001 22.148999999999994 20.105000000000008 C 22.144999999999992 20.343000000000007 22.453999999999994 20.355000000000008 22.475999999999996 20.578000000000007 C 22.482999999999997 20.869000000000007 22.573999999999995 20.822000000000006 22.600999999999996 20.551000000000005 C 22.588999999999995 20.278000000000006 22.280999999999995 20.212000000000007 22.233999999999995 19.965000000000007 C 22.301999999999996 20.040000000000006 22.481999999999996 20.328000000000007 22.619999999999994 20.246000000000006 C 22.443 20 22.471 19.983 22.684 20.2 C 22.752000000000002 20.369 22.580000000000002 20.554 22.751 20.698999999999998 L 22.751 20.698999999999998 C 22.836000000000002 20.662999999999997 22.741 20.651 22.754 20.608999999999998 C 22.860000000000003 20.357 22.828000000000003 19.958 22.508000000000003 19.883 C 22.380000000000003 19.884999999999998 22.193 19.537 22.303000000000004 19.593999999999998 C 22.284000000000006 19.868 22.840000000000003 19.909999999999997 22.592000000000006 19.621999999999996 C 22.429000000000006 19.632999999999996 22.241000000000007 19.260999999999996 22.333000000000006 19.321999999999996 C 22.374000000000006 19.528999999999996 22.593000000000007 19.522999999999996 22.717000000000006 19.651999999999994 C 22.790000000000006 19.513999999999992 22.598000000000006 19.369999999999994 22.500000000000007 19.284999999999993 C 22.73400000000001 19.305999999999994 22.880000000000006 19.608999999999995 22.767000000000007 19.815999999999992 C 22.716000000000008 20.037999999999993 23.032000000000007 19.493999999999993 22.854000000000006 19.376999999999992 C 22.764000000000006 19.16099999999999 22.535000000000007 19.11999999999999 22.359000000000005 19.00699999999999 C 22.123000000000005 18.60799999999999 22.501000000000005 19.222999999999992 22.564000000000004 18.95499999999999 C 22.657000000000004 18.67199999999999 22.276000000000003 18.68699999999999 22.183000000000003 18.50299999999999 C 22.313000000000002 18.64099999999999 22.588000000000005 18.57499999999999 22.633000000000003 18.80499999999999 C 22.581000000000003 19.12499999999999 22.810000000000002 19.08499999999999 22.747000000000003 18.79399999999999 C 22.766000000000002 18.52199999999999 22.487000000000002 18.44999999999999 22.291000000000004 18.38299999999999 C 22.053000000000004 18.17199999999999 22.513000000000005 18.46799999999999 22.647000000000006 18.43599999999999 C 22.616000000000007 18.19799999999999 22.349000000000007 18.14899999999999 22.174000000000007 18.06099999999999 C 21.926000000000005 17.867999999999988 22.056000000000008 17.95299999999999 22.244000000000007 18.04499999999999 C 22.521000000000008 18.03799999999999 22.246000000000006 17.74899999999999 22.09700000000001 17.73999999999999 C 21.742000000000008 17.66699999999999 22.00800000000001 17.66299999999999 22.20200000000001 17.728999999999992 C 22.46900000000001 17.891999999999992 22.31900000000001 17.57699999999999 22.13600000000001 17.55999999999999 C 21.75500000000001 17.51799999999999 22.06200000000001 17.476999999999993 22.28100000000001 17.548999999999992 C 22.26100000000001 17.359999999999992 22.015000000000008 17.368999999999993 21.88100000000001 17.30699999999999 C 21.74300000000001 17.193999999999992 21.606000000000012 16.96299999999999 21.850000000000012 17.176999999999992 C 22.01500000000001 17.03099999999999 21.784000000000013 16.836999999999993 21.627000000000013 16.821999999999992 C 21.532000000000014 16.86999999999999 21.113000000000014 16.709999999999994 21.378000000000014 16.757999999999992 C 21.625000000000014 16.856999999999992 21.678000000000015 16.58299999999999 21.422000000000015 16.557999999999993 C 21.259000000000015 16.554999999999993 20.889000000000014 16.410999999999994 20.969000000000015 16.645999999999994 C 21.104000000000017 16.761999999999993 21.262000000000015 16.876999999999995 21.346000000000014 17.045999999999992 C 21.684000000000015 17.47799999999999 21.891000000000016 17.994999999999994 22.001000000000015 18.54199999999999 C 22.118000000000016 19.21999999999999 22.047000000000015 19.93199999999999 21.768000000000015 20.55899999999999 C 21.689000000000014 20.68399999999999 21.814000000000014 20.376999999999992 21.830000000000016 20.31699999999999 C 21.916000000000015 19.97499999999999 21.778000000000016 20.39199999999999 21.713000000000015 20.39499999999999 C 21.890000000000015 19.95999999999999 22.033000000000015 19.495999999999988 21.994000000000014 19.02299999999999 C 21.989000000000015 18.59899999999999 21.875000000000014 18.19399999999999 21.724000000000014 17.800999999999988 C 21.611000000000015 17.463999999999988 21.649000000000015 17.831999999999987 21.599000000000014 17.695999999999987 C 21.602000000000015 17.588999999999988 21.409000000000013 17.273999999999987 21.454000000000015 17.54299999999999 C 21.495000000000015 17.721999999999987 21.647000000000016 18.08099999999999 21.485000000000014 18.178999999999988 C 21.559000000000015 17.925999999999988 21.454000000000015 17.657999999999987 21.381000000000014 17.410999999999987 C 21.267000000000014 17.137999999999987 21.154000000000014 17.081999999999987 21.209000000000014 17.453999999999986 C 21.042000000000012 17.692999999999987 21.236000000000015 17.278999999999986 21.148000000000014 17.169999999999987 C 21.019000000000013 16.761999999999986 21.057000000000013 17.130999999999986 20.998000000000015 17.352999999999987 C 21.005000000000017 17.21199999999999 21.033000000000015 17.032999999999987 20.917000000000016 16.925999999999988 C 20.968000000000014 16.858999999999988 20.565000000000015 16.832999999999988 20.697000000000017 16.787999999999986 C 20.953000000000017 16.688999999999986 20.849000000000018 16.366999999999987 20.775000000000016 16.176999999999985 C 20.683000000000018 15.973999999999986 20.672000000000015 15.709999999999985 20.596000000000018 15.529999999999985 C 20.39000000000002 15.650999999999986 20.444000000000017 15.927999999999985 20.360000000000017 16.120999999999984 C 20.284000000000017 16.287999999999986 20.359000000000016 16.480999999999984 20.362000000000016 16.604999999999983 C 20.242000000000015 16.465999999999983 20.245000000000015 16.253999999999984 20.285000000000014 16.081999999999983 C 20.208000000000013 15.819999999999983 19.986000000000015 15.643999999999982 19.971000000000014 16.04299999999998 C 19.842000000000013 15.936999999999982 19.617000000000015 15.815999999999981 19.424000000000014 15.89699999999998 C 19.135000000000012 16.115999999999982 19.351000000000013 16.14899999999998 19.596000000000014 16.07499999999998 C 19.643000000000015 16.241999999999983 19.963000000000015 16.226999999999983 19.932000000000013 16.336999999999982 C 19.747000000000014 16.349999999999984 19.562000000000012 16.197999999999983 19.404000000000014 16.375999999999983 C 19.269000000000013 16.562999999999985 18.891000000000012 16.422999999999984 18.872000000000014 16.697999999999983 C 18.721000000000014 16.963999999999984 18.330000000000013 16.991999999999983 18.190000000000015 17.281999999999982 C 18.047000000000015 17.37399999999998 17.854000000000017 17.36799999999998 17.768000000000015 17.54799999999998 C 17.541000000000015 17.64899999999998 17.706000000000014 17.89699999999998 17.701000000000015 18.07299999999998 C 17.540000000000013 18.219999999999978 17.683000000000014 18.50699999999998 17.909000000000013 18.45399999999998 C 18.169000000000015 18.56699999999998 18.286000000000012 18.27199999999998 18.497000000000014 18.21199999999998 C 18.798000000000012 18.134999999999977 18.769000000000013 18.321999999999978 18.567000000000014 18.44599999999998 C 18.560000000000013 18.62099999999998 18.054000000000013 18.708999999999982 18.370000000000015 18.69599999999998 C 18.578000000000014 18.49299999999998 18.733000000000015 18.91999999999998 18.842000000000017 18.45399999999998 C 18.993000000000016 18.43399999999998 19.068000000000016 18.02199999999998 19.115000000000016 18.28799999999998 C 19.375000000000018 18.39099999999998 19.597000000000016 18.18699999999998 19.843000000000018 18.184999999999977 C 20.154000000000018 18.363999999999976 20.612000000000016 18.161999999999978 20.644000000000016 17.802999999999976 C 20.703000000000017 17.328999999999976 20.828000000000017 17.441999999999975 20.715000000000018 17.909999999999975 C 20.70700000000002 18.132999999999974 20.44300000000002 18.182999999999975 20.377000000000017 18.365999999999975 C 20.238000000000017 18.575999999999976 20.036000000000016 18.619999999999976 20.288000000000018 18.401999999999976 C 20.31800000000002 18.392999999999976 20.01900000000002 18.500999999999976 19.924000000000017 18.448999999999977 C 19.987000000000016 18.733999999999977 19.862000000000016 19.015999999999977 19.715000000000018 19.242999999999977 C 19.480000000000018 19.570999999999977 19.08800000000002 19.826999999999977 19.052000000000017 20.268999999999977 C 19.057000000000016 20.623999999999977 18.699000000000016 20.890999999999977 18.79700000000002 21.258999999999975 C 18.782000000000018 21.520999999999976 18.659000000000017 21.100999999999974 18.720000000000017 20.994999999999976 C 18.805000000000017 20.755999999999975 18.762000000000018 20.619999999999976 18.622000000000018 20.899999999999977 C 18.423000000000016 21.225999999999978 18.638000000000016 21.613999999999976 18.494000000000018 21.94799999999998 C 18.421000000000017 22.14299999999998 18.31500000000002 22.45699999999998 18.488000000000017 22.60299999999998 C 18.686000000000018 22.78099999999998 18.712000000000018 22.55599999999998 18.738000000000017 22.38699999999998 C 18.897000000000016 22.15999999999998 18.846000000000018 21.89299999999998 18.866000000000017 21.632999999999978 C 18.939000000000018 21.318999999999978 19.131000000000018 20.99399999999998 19.452000000000016 20.905999999999977 C 19.617000000000015 20.71499999999998 19.909000000000017 20.564999999999976 20.129000000000016 20.582999999999977 C 19.928000000000015 20.665999999999976 19.708000000000016 20.721999999999976 19.562000000000015 20.896999999999977 C 19.358000000000015 21.026999999999976 19.113000000000014 21.165999999999976 19.033000000000015 21.418999999999976 C 18.851000000000017 21.715999999999976 19.019000000000016 22.071999999999974 18.871000000000016 22.371999999999975 C 18.750000000000018 22.591999999999974 18.815000000000015 22.723999999999975 19.048000000000016 22.765999999999973 C 19.175000000000015 22.869999999999973 19.354000000000017 22.932999999999975 19.475000000000016 23.012999999999973 C 19.295000000000016 23.079999999999973 19.169000000000015 22.872999999999973 19.019000000000016 22.815999999999974 C 18.666000000000015 22.716999999999974 19.136000000000017 23.023999999999972 19.091000000000015 23.124999999999975 C 18.906000000000017 22.899999999999974 18.654000000000014 22.746999999999975 18.375000000000014 22.643999999999973 C 17.966000000000015 22.522999999999975 17.524000000000015 22.564999999999973 17.145000000000014 22.341999999999974 C 16.944000000000013 22.180999999999973 16.769000000000013 22.381999999999973 16.678000000000015 22.547999999999973 C 16.496000000000016 22.667999999999974 16.370000000000015 22.87799999999997 16.490000000000016 23.097999999999974 C 16.524000000000015 23.576999999999973 16.560000000000016 24.078999999999976 16.462000000000018 24.556999999999974 C 16.406000000000017 24.705999999999975 16.386000000000017 25.110999999999972 16.590000000000018 24.895999999999972 C 16.763000000000016 24.520999999999972 16.734000000000016 25.101999999999972 16.506000000000018 25.000999999999973 C 16.55000000000002 25.228999999999974 16.535000000000018 25.488999999999972 16.694000000000017 25.67399999999997 C 16.846000000000018 25.75999999999997 16.679000000000016 25.94699999999997 16.85800000000002 25.99899999999997 C 17.06500000000002 26.05599999999997 17.30400000000002 26.15799999999997 17.52700000000002 26.16499999999997 C 17.605000000000018 25.86199999999997 17.56900000000002 25.49999999999997 17.450000000000017 25.20299999999997 C 17.33200000000002 24.96899999999997 16.985000000000017 25.32399999999997 17.020000000000017 25.08899999999997 C 16.813000000000017 24.93699999999997 16.79700000000002 24.50199999999997 17.11100000000002 24.46999999999997 C 17.24600000000002 24.28899999999997 16.98100000000002 24.09699999999997 16.96700000000002 23.89999999999997 C 16.91700000000002 23.79099999999997 16.92800000000002 23.26599999999997 16.86100000000002 23.601999999999972 C 16.80600000000002 23.421999999999972 16.884000000000018 23.15099999999997 17.034000000000017 23.015999999999973 C 17.399000000000015 22.828999999999972 17.699000000000016 23.195999999999973 17.917000000000016 23.434999999999974 C 18.229000000000017 23.760999999999974 18.610000000000017 24.007999999999974 19.040000000000017 24.140999999999973 C 19.36100000000002 24.118999999999975 19.551000000000016 24.44199999999997 19.860000000000017 24.431999999999974 C 19.946000000000016 24.289999999999974 20.001000000000015 24.092999999999975 20.196000000000016 24.053999999999974 C 20.358000000000015 23.885999999999974 20.484000000000016 23.665999999999972 20.726000000000017 23.597999999999974 C 20.740000000000016 23.889999999999976 20.627000000000017 24.495999999999974 20.61400000000002 23.842999999999975 C 20.648000000000017 23.479999999999976 20.46700000000002 23.967999999999975 20.55600000000002 24.081999999999976 C 20.671000000000017 24.253999999999976 20.66700000000002 24.295999999999975 20.49200000000002 24.193999999999974 C 20.227000000000018 24.085999999999974 20.16700000000002 24.255999999999975 20.46400000000002 24.302999999999976 C 20.89300000000002 24.539999999999974 21.33900000000002 24.771999999999977 21.83500000000002 24.834999999999976 C 22.514000000000017 24.987999999999975 23.19300000000002 24.777999999999977 23.860000000000017 24.675999999999977 C 24.327000000000016 24.729999999999976 23.876000000000015 24.683999999999976 24.072000000000017 24.866999999999976 C 24.161000000000016 25.083999999999975 24.423000000000016 25.070999999999977 24.603000000000016 25.025999999999975 C 24.558000000000014 24.786999999999974 24.289000000000016 24.647999999999975 24.072000000000017 24.573999999999973 C 23.968000000000018 24.512999999999973 23.517000000000017 24.49999999999997 23.692000000000018 24.465999999999973 C 24.04700000000002 24.480999999999973 24.470000000000017 24.614999999999974 24.653000000000016 24.949999999999974 C 24.739000000000015 25.225999999999974 24.926000000000016 25.485999999999976 25.233000000000015 25.524999999999974 C 25.460000000000015 25.560999999999975 25.626000000000015 25.706999999999972 25.794000000000015 25.844999999999974 C 26.051000000000016 26.138999999999974 26.415000000000013 26.338999999999974 26.808000000000014 26.439999999999973 C 27.126000000000015 26.53199999999997 27.435000000000013 26.671999999999972 27.624000000000013 26.956999999999972 C 27.817000000000014 27.18899999999997 27.968000000000014 27.437999999999974 28.035000000000014 27.74099999999997 C 28.092000000000013 28.07199999999997 28.234000000000016 28.43299999999997 28.111000000000015 28.76099999999997 C 28.036000000000016 28.96999999999997 28.435000000000016 28.91799999999997 28.433000000000014 29.02599999999997 C 28.218000000000014 29.08099999999997 28.152000000000015 29.29599999999997 28.092000000000013 29.05199999999997 C 27.943000000000012 29.28399999999997 27.80000000000001 29.56799999999997 27.530000000000012 29.67399999999997 C 27.543000000000013 29.866999999999972 27.37200000000001 29.97299999999997 27.30900000000001 30.14499999999997 C 27.275000000000013 30.27799999999997 27.05200000000001 30.47499999999997 27.20700000000001 30.57499999999997 C 27.598000000000013 30.59299999999997 28.06700000000001 30.54199999999997 28.345000000000013 30.23999999999997 C 28.247000000000014 29.93199999999997 27.848000000000013 30.02899999999997 27.612000000000013 29.90899999999997 C 27.781000000000013 29.92699999999997 28.103000000000012 29.90199999999997 28.286000000000012 30.04299999999997 C 28.552000000000014 30.02899999999997 27.87500000000001 29.73099999999997 28.251000000000012 29.78599999999997 C 28.312000000000012 29.56899999999997 28.55600000000001 29.441999999999968 28.601000000000013 29.214999999999968 C 28.596000000000014 29.022999999999968 28.897000000000013 29.20399999999997 29.025000000000013 29.05899999999997 C 29.10800000000001 28.63099999999997 28.759000000000015 28.32699999999997 28.686000000000014 27.93699999999997 C 28.575000000000014 27.560999999999968 28.409000000000013 27.17799999999997 28.414000000000016 26.784999999999968 C 28.426000000000016 26.60799999999997 28.215000000000014 26.510999999999967 28.087000000000014 26.41299999999997 C 27.821000000000012 26.312999999999967 27.657000000000014 26.077999999999967 27.521000000000015 25.845999999999968 C 27.400000000000016 25.626999999999967 27.217000000000017 25.41699999999997 27.028000000000016 25.283999999999967 C 27.190000000000015 24.948999999999966 27.139000000000017 24.552999999999965 27.013000000000016 24.210999999999967 C 27.062000000000015 23.852999999999966 27.021000000000015 23.477999999999966 26.893000000000015 23.144999999999968 C 26.916000000000015 22.96899999999997 26.442000000000014 22.742999999999967 26.737000000000016 22.724999999999966 C 27.113000000000017 22.912999999999965 27.623000000000015 22.700999999999965 27.707000000000015 22.280999999999967 C 27.816000000000017 21.994999999999965 28.247000000000014 22.028999999999968 28.360000000000014 22.299999999999965 C 28.430000000000014 22.555999999999965 28.142000000000014 22.037999999999965 27.976000000000013 22.176999999999964 C 27.733000000000015 22.269999999999964 28.083000000000013 22.268999999999963 28.142000000000014 22.370999999999963 C 28.367000000000015 22.670999999999964 28.086000000000013 22.973999999999965 27.884000000000015 23.181999999999963 C 27.786000000000016 23.524999999999963 27.828000000000014 23.949999999999964 28.090000000000014 24.211999999999964 C 28.293000000000013 24.375999999999966 28.475000000000016 24.585999999999963 28.459000000000014 24.867999999999963 C 28.649000000000015 24.711999999999964 28.493000000000013 24.379999999999963 28.351000000000013 24.220999999999965 C 28.198000000000015 24.033999999999963 28.037000000000013 23.729999999999965 28.124000000000013 23.509999999999966 C 28.110000000000014 23.808999999999966 28.272000000000013 24.058999999999966 28.485000000000014 24.243999999999964 C 28.756000000000014 24.382999999999964 28.811000000000014 24.722999999999963 28.888000000000012 24.970999999999965 C 29.028000000000013 24.692999999999966 28.86400000000001 24.381999999999966 28.699000000000012 24.158999999999963 C 28.539000000000012 24.018999999999963 28.380000000000013 23.758999999999965 28.452000000000012 23.563999999999965 C 28.44200000000001 23.910999999999966 28.769000000000013 24.095999999999965 28.924000000000014 24.360999999999965 C 29.076000000000015 24.585999999999967 29.235000000000014 24.753999999999966 29.068000000000012 24.308999999999966 C 28.857000000000014 24.055999999999965 28.703000000000014 23.722999999999967 28.812000000000012 23.382999999999967 C 28.868000000000013 23.22699999999997 28.859000000000012 23.019999999999968 28.851000000000013 22.893999999999966 C 28.990000000000013 23.245999999999967 28.678000000000015 23.658999999999967 28.935000000000013 23.995999999999967 C 29.159000000000013 24.288999999999966 29.500000000000014 24.622999999999966 29.355000000000015 25.04099999999997 C 29.374000000000013 25.19899999999997 29.256000000000014 25.36999999999997 29.238000000000014 25.484999999999967 C 29.638000000000012 25.24199999999997 29.694000000000013 24.61399999999997 29.441000000000013 24.234999999999967 C 29.187 23.944 29.157 23.516 29.278 23.152 z M 17.955 17.91 C 17.939 17.925 17.929 17.961 17.901 17.955000000000002 C 17.876 17.933000000000003 17.901 17.901000000000003 17.918 17.884 C 17.927 17.864 17.95 17.855 17.959 17.834 C 17.97 17.82 18.012 17.794 17.983 17.78 C 17.96 17.782 17.944 17.761000000000003 17.923000000000002 17.754 C 17.900000000000002 17.746000000000002 17.879 17.764000000000003 17.868000000000002 17.782 C 17.858 17.795 17.844 17.819 17.824 17.808 C 17.808000000000003 17.792 17.808000000000003 17.766 17.813000000000002 17.745 C 17.823000000000004 17.719 17.838 17.693 17.863000000000003 17.679000000000002 C 17.885 17.660000000000004 17.908000000000005 17.643 17.930000000000003 17.623 C 17.949 17.603 17.969000000000005 17.585 17.985000000000003 17.561 C 18.001 17.545 18.027000000000005 17.542 18.042 17.523 C 18.071 17.523 18.096 17.506 18.125 17.504 L 18.125 17.504 L 18.129 17.504 L 18.133000000000003 17.504 C 18.169000000000004 17.506 18.197000000000003 17.536 18.213 17.566000000000003 C 18.226000000000003 17.592000000000002 18.228 17.621000000000002 18.225 17.649 C 18.217000000000002 17.674 18.205000000000002 17.7 18.19 17.722 C 18.174000000000003 17.738 18.161 17.757 18.142000000000003 17.769000000000002 C 18.125000000000004 17.785 18.102000000000004 17.793000000000003 18.083000000000002 17.807000000000002 C 18.066000000000003 17.826 18.044 17.835 18.022000000000002 17.846000000000004 C 17.998 17.865 17.973 17.884 17.955 17.91 z M 18.738 17.193 C 18.703 17.216 18.674 17.247 18.637 17.267000000000003 C 18.573 17.313000000000002 18.505 17.354000000000003 18.451 17.411 C 18.418 17.442 18.388 17.48 18.383 17.526 C 18.381999999999998 17.576 18.404 17.625 18.398 17.675 C 18.39 17.711000000000002 18.378 17.747 18.355 17.777 C 18.326 17.799 18.315 17.835 18.288 17.86 C 18.227 17.902 18.163 17.942 18.095 17.971999999999998 C 18.044999999999998 17.983999999999998 18.070999999999998 17.918999999999997 18.099999999999998 17.909999999999997 C 18.139999999999997 17.872999999999998 18.194 17.855999999999998 18.232999999999997 17.816999999999997 C 18.290999999999997 17.770999999999997 18.319999999999997 17.697999999999997 18.327999999999996 17.625999999999998 C 18.335999999999995 17.572999999999997 18.322999999999997 17.512999999999998 18.352999999999994 17.464999999999996 C 18.371999999999993 17.422999999999995 18.402999999999995 17.392999999999997 18.437999999999995 17.362999999999996 C 18.469999999999995 17.323999999999995 18.509999999999994 17.290999999999997 18.554999999999996 17.265999999999995 C 18.595999999999997 17.238999999999994 18.640999999999995 17.216999999999995 18.675999999999995 17.181999999999995 C 18.709999999999994 17.166999999999994 18.744999999999994 17.152999999999995 18.775999999999996 17.131999999999994 L 18.780999999999995 17.132999999999996 C 18.831 17.15 18.761 17.188 18.738 17.193 z M 19.208 16.724 C 19.241999999999997 16.708000000000002 19.275 16.687 19.311999999999998 16.68 C 19.336999999999996 16.668 19.363999999999997 16.665 19.391 16.662 C 19.419999999999998 16.648 19.453999999999997 16.648 19.483999999999998 16.637999999999998 L 19.488 16.639999999999997 C 19.516 16.644999999999996 19.544999999999998 16.641999999999996 19.573 16.644999999999996 C 19.596 16.659999999999997 19.624 16.653999999999996 19.649 16.661999999999995 C 19.674 16.670999999999996 19.691000000000003 16.691999999999997 19.715 16.701999999999995 C 19.729 16.722999999999995 19.748 16.734999999999996 19.769 16.748999999999995 C 19.798 16.768999999999995 19.805999999999997 16.809999999999995 19.79 16.839999999999996 C 19.776 16.873999999999995 19.739 16.844999999999995 19.744 16.816999999999997 C 19.737 16.788999999999998 19.717 16.764999999999997 19.692 16.750999999999998 C 19.667 16.726999999999997 19.64 16.703 19.606 16.692999999999998 C 19.579 16.679999999999996 19.549000000000003 16.682 19.520000000000003 16.677 C 19.490000000000002 16.674 19.459000000000003 16.673 19.430000000000003 16.682 C 19.403000000000002 16.695 19.372000000000003 16.703 19.342000000000002 16.700999999999997 C 19.317000000000004 16.695999999999998 19.294000000000004 16.709999999999997 19.272000000000002 16.720999999999997 C 19.251 16.732999999999997 19.233 16.750999999999998 19.220000000000002 16.770999999999997 C 19.204000000000004 16.793999999999997 19.189000000000004 16.817999999999998 19.180000000000003 16.843999999999998 C 19.171000000000003 16.878999999999998 19.125000000000004 16.858999999999998 19.139000000000003 16.828 C 19.152 16.787 19.171 16.746 19.208 16.724 z M 19.271 17.082 C 19.266000000000002 17.072 19.268 17.060000000000002 19.271 17.05 C 19.278000000000002 17.05 19.285 17.051000000000002 19.292 17.053 C 19.302000000000003 17.056 19.312 17.060000000000002 19.317 17.069 C 19.319 17.078 19.330000000000002 17.079 19.336 17.084999999999997 C 19.351 17.089 19.363999999999997 17.098 19.38 17.095999999999997 C 19.395 17.096999999999998 19.41 17.093999999999998 19.424 17.091999999999995 C 19.435 17.091999999999995 19.445 17.087999999999994 19.453 17.081999999999994 C 19.468999999999998 17.070999999999994 19.489 17.063999999999993 19.509 17.063999999999993 C 19.511 17.071999999999992 19.517 17.078999999999994 19.515 17.086999999999993 C 19.51 17.10299999999999 19.494 17.110999999999994 19.479 17.115999999999993 C 19.467 17.11799999999999 19.456 17.12399999999999 19.442999999999998 17.124999999999993 C 19.419999999999998 17.130999999999993 19.397 17.138999999999992 19.374 17.135999999999992 C 19.355999999999998 17.13199999999999 19.339 17.126999999999992 19.322 17.119999999999994 C 19.302 17.112 19.28 17.102 19.271 17.082 z M 19.545 18.158 C 19.489 18.203000000000003 19.439 18.231 19.392000000000003 18.236 C 19.345000000000002 18.244 19.305000000000003 18.224 19.319000000000003 18.205000000000002 C 19.336000000000002 18.186000000000003 19.407000000000004 18.164 19.471000000000004 18.133000000000003 C 19.535000000000004 18.097 19.587000000000003 18.049000000000003 19.607000000000003 17.988000000000003 C 19.624000000000002 17.929000000000002 19.603 17.855000000000004 19.587000000000003 17.802000000000003 C 19.570000000000004 17.749000000000002 19.557000000000002 17.714000000000002 19.557000000000002 17.675000000000004 C 19.557000000000002 17.638000000000005 19.571 17.599000000000004 19.590000000000003 17.598000000000003 C 19.593000000000004 17.598000000000003 19.595000000000002 17.598000000000003 19.598000000000003 17.6 C 19.618000000000002 17.614 19.649 17.689 19.668000000000003 17.764000000000003 C 19.688000000000002 17.845000000000002 19.701000000000004 17.921000000000003 19.679000000000002 17.991000000000003 C 19.656 18.057 19.598 18.113 19.545 18.158 z M 19.71 17.065 C 19.676000000000002 17.057000000000002 19.644000000000002 17.042 19.609 17.039 C 19.594 17.025000000000002 19.579 17.011000000000003 19.564 16.997 C 19.552 16.987 19.542 16.969 19.523 16.974 C 19.49 16.975 19.474 17.01 19.445 17.019000000000002 C 19.416 17.027 19.382 17.026000000000003 19.36 17.002000000000002 C 19.333 16.987000000000002 19.332 16.949 19.362 16.938000000000002 C 19.384999999999998 16.922000000000004 19.409 16.893 19.398999999999997 16.864 C 19.385999999999996 16.838 19.349999999999998 16.843 19.326999999999998 16.851 C 19.305999999999997 16.865 19.287 16.887 19.273 16.907 C 19.259999999999998 16.93 19.254 16.957 19.233999999999998 16.976 C 19.217 17 19.191 17.009999999999998 19.168999999999997 17.026999999999997 C 19.144999999999996 17.051 19.104999999999997 17.014999999999997 19.126999999999995 16.987999999999996 C 19.141999999999996 16.966999999999995 19.160999999999994 16.948999999999995 19.171999999999997 16.924999999999997 C 19.185999999999996 16.904999999999998 19.191999999999997 16.877 19.214 16.862999999999996 C 19.232 16.833999999999996 19.259 16.808999999999997 19.288999999999998 16.792999999999996 C 19.316 16.779999999999994 19.345 16.774999999999995 19.372999999999998 16.764999999999997 L 19.372999999999998 16.764999999999997 C 19.415999999999997 16.764999999999997 19.459999999999997 16.775 19.496999999999996 16.798 C 19.520999999999997 16.817999999999998 19.545999999999996 16.839 19.562999999999995 16.866 C 19.575999999999997 16.902 19.598999999999997 16.934 19.622999999999994 16.964 C 19.645999999999994 16.974999999999998 19.667999999999996 16.985999999999997 19.690999999999995 16.997 C 19.708999999999996 17.009 19.731999999999996 16.998 19.751999999999995 16.999 C 19.774999999999995 16.99 19.811999999999994 17.003 19.791999999999994 17.032 C 19.775 17.058 19.739 17.063 19.71 17.065 z M 20.106 16.79 C 20.109 16.805 20.105 16.819 20.103 16.834 C 20.094 16.845 20.096 16.863 20.092000000000002 16.874 C 20.087000000000003 16.884 20.083000000000002 16.894 20.079 16.904 C 20.077 16.918 20.067 16.928 20.058 16.939 C 20.047 16.952 20.036 16.965 20.02 16.973 C 20.009999999999998 16.980999999999998 19.999 16.991999999999997 19.985 16.994999999999997 C 19.966 17.005 19.945999999999998 17.016 19.925 17.017999999999997 C 19.904 17.022 19.895 16.997999999999998 19.900000000000002 16.981999999999996 C 19.908 16.966999999999995 19.923000000000002 16.958999999999996 19.937 16.950999999999997 C 19.957 16.945999999999998 19.969 16.927999999999997 19.984 16.913999999999998 C 19.998 16.906 20.001 16.891 20.012 16.88 C 20.023 16.866999999999997 20.021 16.849 20.037 16.839 C 20.041999999999998 16.825999999999997 20.051 16.813 20.051 16.798 C 20.061999999999998 16.767999999999997 20.064999999999998 16.735 20.078 16.706 C 20.082 16.685 20.102999999999998 16.677 20.116 16.663 C 20.124 16.666 20.131 16.675 20.128 16.683 C 20.113 16.716 20.105 16.753 20.106 16.79 z M 20.294 17.853 C 20.314 17.808 20.325 17.778000000000002 20.328 17.739 C 20.331 17.7 20.320999999999998 17.653000000000002 20.343999999999998 17.631 C 20.351999999999997 17.624 20.365 17.62 20.377 17.62 C 20.397 17.621000000000002 20.416999999999998 17.633000000000003 20.422 17.661 C 20.43 17.708000000000002 20.397000000000002 17.796000000000003 20.355 17.863000000000003 C 20.311 17.927000000000003 20.252 17.965000000000003 20.241 17.960000000000004 C 20.233 17.951 20.269 17.898 20.294 17.853 z M 20.542 17.837 C 20.520000000000003 17.918 20.486 17.998 20.439 18.054 C 20.392 18.107 20.327 18.131999999999998 20.291 18.131999999999998 C 20.252 18.125999999999998 20.236 18.089 20.244 18.069999999999997 C 20.252 18.046999999999997 20.28 18.036999999999995 20.314 18.028999999999996 C 20.347 18.022999999999996 20.386 18.020999999999997 20.414 17.989999999999995 C 20.442 17.958999999999996 20.459000000000003 17.897999999999996 20.470000000000002 17.833999999999996 C 20.481 17.772999999999996 20.489 17.711999999999996 20.506000000000004 17.669999999999995 C 20.516000000000005 17.645999999999994 20.531000000000002 17.627999999999993 20.543000000000003 17.625999999999994 C 20.550000000000004 17.624999999999993 20.556000000000004 17.629999999999995 20.560000000000002 17.641999999999992 C 20.57 17.673 20.562 17.754 20.542 17.837 z M 20.613 16.612 C 20.579 16.636999999999997 20.553 16.587999999999997 20.569 16.558999999999997 C 20.576999999999998 16.537999999999997 20.590999999999998 16.517999999999997 20.605 16.499999999999996 C 20.619 16.461999999999996 20.615000000000002 16.416999999999998 20.59 16.383999999999997 C 20.582 16.353999999999996 20.533 16.362 20.535 16.392999999999997 C 20.53 16.423 20.548000000000002 16.449999999999996 20.546 16.480999999999998 C 20.557 16.502999999999997 20.557 16.548 20.52 16.538999999999998 C 20.511 16.531 20.502 16.523 20.493 16.516 C 20.477999999999998 16.505 20.467 16.49 20.464 16.471999999999998 C 20.451999999999998 16.444 20.447 16.412999999999997 20.451999999999998 16.381999999999998 C 20.456999999999997 16.348999999999997 20.467999999999996 16.316999999999997 20.474999999999998 16.282999999999998 C 20.485 16.256999999999998 20.502999999999997 16.232999999999997 20.503999999999998 16.203999999999997 C 20.522999999999996 16.126999999999995 20.503999999999998 16.048 20.514999999999997 15.970999999999997 C 20.517999999999997 15.941999999999997 20.530999999999995 15.904999999999996 20.564999999999998 15.901999999999996 C 20.569999999999997 15.920999999999996 20.567999999999998 15.938999999999997 20.563 15.957999999999995 C 20.558999999999997 15.988999999999995 20.558999999999997 16.019999999999996 20.558999999999997 16.050999999999995 C 20.563 16.078999999999994 20.561999999999998 16.108999999999995 20.576999999999998 16.134999999999994 C 20.581999999999997 16.159999999999993 20.589 16.182999999999993 20.598999999999997 16.205999999999996 C 20.606999999999996 16.226999999999997 20.612 16.248999999999995 20.628999999999998 16.264999999999997 C 20.639 16.290999999999997 20.659999999999997 16.312999999999995 20.666999999999998 16.342 C 20.674 16.369 20.682999999999996 16.394 20.688 16.421 C 20.705 16.458 20.692 16.5 20.676 16.535 C 20.664 16.566 20.638 16.59 20.613 16.612 z M 19.525 20.034 C 19.586 20.002 19.656 19.979 19.680999999999997 19.980999999999998 L 19.680999999999997 19.980999999999998 C 19.685 19.980999999999998 19.686999999999998 19.982999999999997 19.688999999999997 19.983999999999998 C 19.699999999999996 19.994999999999997 19.648999999999997 20.043 19.597999999999995 20.087 C 19.544999999999995 20.132 19.495999999999995 20.171 19.456999999999997 20.182 C 19.417999999999996 20.195999999999998 19.387999999999998 20.180999999999997 19.398999999999997 20.151 C 19.408 20.12 19.461 20.068 19.525 20.034 z M 19.538 20.308 C 19.466 20.366 19.42 20.412 19.386 20.448999999999998 C 19.352999999999998 20.485 19.334 20.514 19.32 20.551 C 19.309 20.581999999999997 19.3 20.622999999999998 19.281 20.648 C 19.256 20.673 19.215999999999998 20.684 19.203999999999997 20.673 C 19.192999999999998 20.659 19.208 20.625 19.226999999999997 20.581 C 19.243999999999996 20.538999999999998 19.264999999999997 20.483 19.292999999999996 20.439 L 19.294999999999995 20.439 C 19.321999999999996 20.397 19.355999999999995 20.364 19.394999999999996 20.325 C 19.436999999999998 20.288999999999998 19.483999999999995 20.247 19.533999999999995 20.211 C 19.583999999999996 20.171999999999997 19.633999999999997 20.141 19.680999999999994 20.122 C 19.705999999999992 20.114 19.729999999999993 20.108999999999998 19.742999999999995 20.111 C 19.756999999999994 20.113 19.761999999999993 20.123 19.747999999999994 20.142 C 19.718 20.174 19.613 20.249 19.538 20.308 z M 16.928 25.915 C 16.971 25.875 17.013 25.833 17.043 25.782 C 17.064 25.754 17.070999999999998 25.72 17.079 25.686 C 17.084 25.653 17.087 25.621 17.09 25.588 C 17.092 25.549 17.095 25.51 17.099 25.471 C 17.096 25.431 17.108 25.392 17.121 25.355 C 17.144 25.315 17.157 25.269000000000002 17.188 25.233 C 17.195 25.232 17.201999999999998 25.232 17.209 25.234 C 17.238 25.247000000000003 17.211 25.282 17.205 25.303 C 17.180999999999997 25.346 17.174 25.395 17.162 25.441000000000003 C 17.160999999999998 25.469 17.16 25.498 17.157 25.526000000000003 C 17.155 25.580000000000002 17.144 25.633000000000003 17.141000000000002 25.687000000000005 C 17.132 25.741000000000003 17.105 25.789000000000005 17.083000000000002 25.838000000000005 C 17.057000000000002 25.860000000000003 17.031000000000002 25.881000000000004 17.007 25.905000000000005 C 16.984 25.929000000000006 16.961000000000002 25.952000000000005 16.936 25.974000000000004 C 16.891 25.995 16.903 25.929 16.928 25.915 z M 16.947 22.847 C 16.884999999999998 22.878 16.819 22.880000000000003 16.799 22.85 C 16.78 22.822000000000003 16.813 22.764000000000003 16.852 22.703000000000003 C 16.894000000000002 22.642000000000003 16.935 22.582000000000004 16.952 22.580000000000002 C 16.966 22.580000000000002 16.949 22.642000000000003 16.952 22.678 C 16.952 22.714000000000002 16.973000000000003 22.733 17 22.733 C 17.031 22.733 17.074 22.717000000000002 17.066 22.739 C 17.06 22.758 17.008 22.816 16.947 22.847 z M 19.281 21.377 C 19.32 21.313 19.366999999999997 21.253999999999998 19.409 21.212999999999997 C 19.448 21.170999999999996 19.474 21.145999999999997 19.511 21.124 C 19.544 21.105 19.579 21.084999999999997 19.62 21.076999999999998 C 19.630000000000003 21.075999999999997 19.641000000000002 21.073999999999998 19.651 21.073999999999998 C 19.682 21.073999999999998 19.707 21.081 19.703 21.095999999999997 C 19.698 21.115999999999996 19.637 21.145999999999997 19.567 21.195999999999998 C 19.5 21.243 19.422 21.307999999999996 19.375 21.351999999999997 C 19.328 21.398999999999997 19.311 21.420999999999996 19.3 21.451999999999998 C 19.289 21.482999999999997 19.283 21.519 19.261 21.540999999999997 C 19.242 21.565999999999995 19.208 21.574999999999996 19.208 21.543999999999997 C 19.205 21.513 19.239 21.441 19.281 21.377 z M 19.353 21.616 C 19.311 21.652 19.272000000000002 21.698 19.247 21.739 C 19.219 21.778000000000002 19.208 21.812 19.186 21.831 C 19.164 21.852999999999998 19.134 21.86 19.139 21.817999999999998 C 19.148 21.781 19.188 21.697999999999997 19.233 21.639999999999997 C 19.277 21.583999999999996 19.32 21.548 19.364 21.514999999999997 C 19.408 21.481999999999996 19.453 21.450999999999997 19.492 21.439999999999998 C 19.501 21.438 19.51 21.436999999999998 19.519000000000002 21.436999999999998 C 19.545 21.436999999999998 19.564000000000004 21.444999999999997 19.564000000000004 21.456999999999997 C 19.564000000000004 21.473999999999997 19.528000000000002 21.496 19.486000000000004 21.523999999999997 C 19.444 21.55 19.398 21.577 19.353 21.616 z M 20.099 23.883 C 20.039 23.910999999999998 19.971 23.942999999999998 19.938 24.003 C 19.913 24.055 19.886 24.106 19.846 24.146 C 19.813 24.204 19.747 24.215 19.687 24.202 C 19.629 24.198 19.564 24.181 19.523 24.141000000000002 C 19.474 24.106 19.434 24.057000000000002 19.374 24.035 C 19.296 23.993 19.206999999999997 23.998 19.122 23.981 C 19.071 23.967000000000002 19.015 23.985000000000003 18.965 23.964000000000002 C 18.915 23.909000000000002 18.84 23.908 18.774 23.883000000000003 C 18.73 23.852000000000004 18.682000000000002 23.821 18.629 23.801000000000002 C 18.573 23.767000000000003 18.537000000000003 23.71 18.478 23.679000000000002 C 18.461000000000002 23.652 18.368000000000002 23.596000000000004 18.422 23.578000000000003 C 18.457 23.585000000000004 18.479 23.617000000000004 18.508 23.633000000000003 C 18.567999999999998 23.676000000000002 18.622999999999998 23.723000000000003 18.68 23.768000000000004 C 18.730999999999998 23.792000000000005 18.769 23.832000000000004 18.826 23.844000000000005 C 18.879 23.869000000000003 18.938 23.875000000000004 18.991 23.900000000000006 C 19.088 23.931000000000004 19.192 23.944000000000006 19.294 23.939000000000007 C 19.368000000000002 23.925000000000008 19.434 23.96900000000001 19.483 24.017000000000007 C 19.524 24.076000000000008 19.595 24.103000000000005 19.664 24.113000000000007 C 19.742 24.104000000000006 19.806 24.045000000000005 19.849 23.984000000000005 C 19.887 23.940000000000005 19.933 23.905000000000005 19.985 23.879000000000005 C 20.028 23.850000000000005 20.08 23.835000000000004 20.12 23.802000000000003 C 20.208 23.772 20.147 23.876 20.099 23.883 z M 20.18 19.041 C 20.133 19.061 20.073999999999998 19.06 20.076999999999998 19.038 C 20.08 19.016000000000002 20.142 18.965 20.189999999999998 18.929 C 20.229 18.895 20.256999999999998 18.868 20.273999999999997 18.865 L 20.273999999999997 18.865 C 20.276999999999997 18.865 20.278 18.863999999999997 20.279999999999998 18.865 C 20.296999999999997 18.871 20.302999999999997 18.907 20.285999999999998 18.942999999999998 C 20.269 18.981 20.233 19.021 20.18 19.041 z M 20.344 18.678 C 20.305 18.723000000000003 20.264000000000003 18.759 20.225 18.798000000000002 C 20.186 18.831000000000003 20.150000000000002 18.869000000000003 20.111 18.889000000000003 C 20.069 18.906000000000002 20.025000000000002 18.909000000000002 20.033 18.881000000000004 C 20.044 18.853000000000005 20.106 18.798000000000005 20.150000000000002 18.756000000000004 C 20.195000000000004 18.714000000000002 20.222 18.686000000000003 20.250000000000004 18.656000000000002 C 20.278000000000002 18.628000000000004 20.306000000000004 18.6 20.342000000000002 18.578000000000003 C 20.359 18.567000000000004 20.377000000000002 18.558000000000003 20.392000000000003 18.555000000000003 L 20.392000000000003 18.555000000000003 L 20.392000000000003 18.555000000000003 L 20.392000000000003 18.555000000000003 C 20.407000000000004 18.552000000000003 20.417 18.555000000000003 20.417 18.564000000000004 C 20.42 18.583 20.383 18.633 20.344 18.678 z M 21.731 18.97 C 21.741000000000003 18.971 21.748 18.982 21.745 19.006 C 21.742 19.053 21.698 19.157 21.67 19.229 C 21.645000000000003 19.301 21.636000000000003 19.346 21.611 19.371 C 21.589000000000002 19.401 21.55 19.409 21.538 19.398999999999997 C 21.524 19.387999999999998 21.535 19.355999999999998 21.554 19.311999999999998 C 21.572999999999997 19.269999999999996 21.601 19.214999999999996 21.625999999999998 19.153999999999996 C 21.647999999999996 19.095999999999997 21.668 19.030999999999995 21.692999999999998 18.994999999999997 C 21.706 18.979 21.721 18.969 21.731 18.97 z M 20.764 22.513 C 20.836 22.441000000000003 20.929 22.341 21.002 22.23 C 21.070999999999998 22.116 21.119 21.987000000000002 21.154999999999998 21.911 C 21.188999999999997 21.833000000000002 21.206999999999997 21.802 21.226999999999997 21.783 C 21.243999999999996 21.768 21.259999999999998 21.759 21.272 21.76 L 21.272 21.76 C 21.276 21.76 21.279999999999998 21.762 21.282999999999998 21.765 C 21.293999999999997 21.773 21.291999999999998 21.807000000000002 21.285999999999998 21.843 C 21.279999999999998 21.882 21.267999999999997 21.923 21.238 22.001 C 21.205 22.076 21.153 22.191000000000003 21.083 22.285 C 21.016 22.382 20.938 22.463 20.874 22.527 C 20.81 22.588 20.762 22.630000000000003 20.715 22.652 C 20.673 22.674 20.629 22.674 20.632 22.652 C 20.64 22.629 20.692 22.585 20.764 22.513 z M 20.581 22.908 C 20.623 22.875 20.7 22.823 20.77 22.764000000000003 C 20.84 22.708000000000002 20.906 22.650000000000002 20.959 22.597 C 21.015 22.544 21.063 22.5 21.093 22.458000000000002 C 21.129 22.413 21.15 22.372000000000003 21.173 22.330000000000002 C 21.194999999999997 22.286 21.22 22.247000000000003 21.237 22.216 C 21.252 22.193 21.264 22.177 21.275 22.175 C 21.279 22.175 21.282 22.175 21.285999999999998 22.178 C 21.296999999999997 22.189 21.313 22.229 21.293999999999997 22.29 C 21.275 22.351 21.218999999999998 22.432 21.154999999999998 22.509999999999998 C 21.087999999999997 22.590999999999998 21.012999999999998 22.671 20.909999999999997 22.752 C 20.803999999999995 22.826999999999998 20.671999999999997 22.901 20.529999999999998 22.959999999999997 C 20.533 22.95 20.542 22.937 20.581 22.908 z M 20.745 23.181 C 20.709 23.201 20.67 23.208000000000002 20.664 23.192 C 20.661 23.173000000000002 20.695 23.132 20.731 23.112000000000002 C 20.749000000000002 23.102 20.768 23.098000000000003 20.783 23.098000000000003 C 20.798000000000002 23.098000000000003 20.808 23.104000000000003 20.810000000000002 23.112000000000002 C 20.815 23.132 20.782 23.162 20.745 23.181 z M 20.92 24.228 C 20.900000000000002 24.247 20.857000000000003 24.249000000000002 20.837000000000003 24.187 C 20.817000000000004 24.125 20.823000000000004 24.002000000000002 20.831000000000003 23.921 C 20.837000000000003 23.837 20.846000000000004 23.796 20.862000000000002 23.753999999999998 C 20.877000000000002 23.717 20.894000000000002 23.682999999999996 20.909000000000002 23.680999999999997 C 20.911 23.680999999999997 20.913000000000004 23.682 20.915000000000003 23.682999999999996 C 20.929000000000002 23.688999999999997 20.931 23.740999999999996 20.931 23.818999999999996 C 20.934 23.899999999999995 20.934 24.008999999999997 20.934 24.084999999999994 C 20.937 24.162 20.94 24.206 20.92 24.228 z M 21.13 24.278 C 21.102 24.272 21.064999999999998 24.233999999999998 21.049 24.159 L 21.049 24.157 C 21.029 24.082 21.03 23.971 21.052 23.885 C 21.069 23.809 21.104 23.753 21.125 23.758000000000003 C 21.128 23.759000000000004 21.13 23.761000000000003 21.133 23.764000000000003 C 21.153 23.786 21.144 23.898000000000003 21.141 23.973000000000003 C 21.137999999999998 24.048000000000002 21.142 24.090000000000003 21.15 24.123 C 21.157999999999998 24.156000000000002 21.171999999999997 24.185000000000002 21.171999999999997 24.215 C 21.172 24.248 21.155 24.278 21.13 24.278 z M 21.164 22.814 C 21.128 22.856 21.094 22.901 21.061 22.945 C 21.025 22.990000000000002 20.988 23.031 20.944 23.053 C 20.898999999999997 23.075 20.849 23.075 20.849 23.053 C 20.849 23.034000000000002 20.896 22.995 20.935 22.959 C 20.971 22.928 20.999 22.9 21.026999999999997 22.867 C 21.054999999999996 22.834 21.086 22.791 21.110999999999997 22.744 C 21.132999999999996 22.701999999999998 21.147 22.65 21.174999999999997 22.611 C 21.201999999999998 22.572 21.238999999999997 22.539 21.258999999999997 22.541 C 21.261999999999997 22.541 21.262999999999998 22.542 21.264999999999997 22.544 C 21.284999999999997 22.558 21.275 22.619 21.251999999999995 22.672 C 21.231 22.725 21.198 22.769 21.164 22.814 z M 21.339 24.278 C 21.314 24.284 21.288999999999998 24.262 21.275 24.209 C 21.258 24.156 21.255 24.076 21.255 24.02 C 21.255 23.964 21.258 23.938 21.266 23.918 C 21.272 23.896 21.278 23.88 21.296999999999997 23.86 C 21.31 23.843 21.328999999999997 23.826 21.340999999999998 23.826999999999998 C 21.345 23.826999999999998 21.348 23.83 21.349999999999998 23.834999999999997 C 21.352999999999998 23.851999999999997 21.333 23.912999999999997 21.33 23.965999999999998 C 21.326999999999998 24.022 21.343999999999998 24.069 21.357999999999997 24.107999999999997 C 21.371999999999996 24.15 21.388999999999996 24.179 21.385999999999996 24.212999999999997 C 21.38 24.245 21.358 24.275 21.339 24.278 z M 21.392 18.764 C 21.397 18.736 21.441 18.656 21.474999999999998 18.592 C 21.514 18.525 21.538999999999998 18.48 21.552999999999997 18.43 C 21.566999999999997 18.38 21.568999999999996 18.325 21.589 18.294 C 21.596 18.279 21.607 18.269000000000002 21.616999999999997 18.267 C 21.626999999999995 18.264999999999997 21.637999999999998 18.272 21.641999999999996 18.29 C 21.649999999999995 18.323 21.638999999999996 18.399 21.624999999999996 18.448999999999998 C 21.607999999999997 18.502 21.591999999999995 18.526999999999997 21.574999999999996 18.552 C 21.554999999999996 18.573999999999998 21.536999999999995 18.598 21.516999999999996 18.631999999999998 C 21.494999999999997 18.662999999999997 21.469999999999995 18.705 21.441999999999997 18.735 C 21.414 18.766 21.384 18.792 21.392 18.764 z M 21.553 18.903 C 21.586000000000002 18.828 21.618000000000002 18.758 21.634 18.7 C 21.651 18.644 21.656 18.590999999999998 21.673000000000002 18.586 C 21.69 18.583 21.721 18.625 21.712000000000003 18.692 C 21.706000000000003 18.759 21.665000000000003 18.844 21.612000000000002 18.925 C 21.562 19.006 21.503 19.082 21.492 19.077 C 21.481 19.069 21.52 18.982 21.553 18.903 z M 21.578 24.281 C 21.559 24.278 21.538999999999998 24.24 21.522 24.195 C 21.511 24.148 21.503999999999998 24.095 21.506 24.056 C 21.511 24.022000000000002 21.522 23.998 21.534 24 C 21.535999999999998 24 21.537 24.002 21.538999999999998 24.003 C 21.552999999999997 24.014 21.563999999999997 24.064 21.578 24.106 C 21.595 24.148000000000003 21.614 24.180000000000003 21.614 24.214000000000002 C 21.614 24.248 21.595 24.284 21.578 24.281 z M 21.606 19.789 C 21.572000000000003 19.823 21.528000000000002 19.833000000000002 21.539 19.786 C 21.547 19.738000000000003 21.609 19.630000000000003 21.650000000000002 19.561 C 21.692000000000004 19.489 21.712000000000003 19.453 21.720000000000002 19.411 C 21.728 19.369 21.725 19.322000000000003 21.745 19.294 C 21.756 19.28 21.774 19.272000000000002 21.789 19.272000000000002 C 21.804000000000002 19.272000000000002 21.816000000000003 19.281000000000002 21.817 19.302000000000003 C 21.823 19.341000000000005 21.787 19.424000000000003 21.759 19.494000000000003 C 21.728 19.561000000000003 21.703 19.608000000000004 21.681 19.658000000000005 C 21.659 19.708 21.64 19.759 21.606 19.789 z M 22.008 21.736 L 22.006 21.736 C 22.009 21.714000000000002 22.012 21.691 22.014 21.669 C 22.003 21.646 21.982 21.615000000000002 21.963 21.566 C 21.944000000000003 21.512999999999998 21.924 21.433 21.902 21.369 C 21.882 21.305 21.862000000000002 21.257 21.868000000000002 21.221 C 21.87 21.194 21.889000000000003 21.173000000000002 21.912000000000003 21.173000000000002 C 21.92 21.173000000000002 21.927000000000003 21.176000000000002 21.935000000000002 21.181 C 21.966 21.2 21.996000000000002 21.26 22.013 21.361 C 22.025000000000002 21.447 22.026000000000003 21.557000000000002 22.015 21.67 C 22.016000000000002 21.673000000000002 22.019000000000002 21.676000000000002 22.02 21.679000000000002 C 22.03 21.703 22.024 21.722 22.008 21.736 z M 22.247 21.572 C 22.241 21.642 22.235 21.678 22.23 21.714 C 22.224 21.753 22.222 21.794999999999998 22.205000000000002 21.805999999999997 C 22.188000000000002 21.816999999999997 22.158 21.796999999999997 22.152 21.749999999999996 C 22.149 21.707999999999995 22.168 21.638999999999996 22.174 21.571999999999996 C 22.177 21.501999999999995 22.16 21.429999999999996 22.149 21.379999999999995 C 22.132 21.326999999999995 22.119 21.296999999999997 22.141000000000002 21.282999999999994 C 22.146 21.279999999999994 22.153000000000002 21.276999999999994 22.161 21.276999999999994 C 22.186 21.275999999999993 22.222 21.291999999999994 22.241 21.332999999999995 C 22.26 21.391 22.255 21.499 22.247 21.572 z M 22.444 21.722 C 22.425 21.758000000000003 22.386 21.794 22.369 21.769000000000002 C 22.352 21.741000000000003 22.361 21.659000000000002 22.361 21.586000000000002 C 22.358 21.516000000000002 22.349 21.463 22.363 21.441000000000003 C 22.369 21.432000000000002 22.38 21.427000000000003 22.391 21.427000000000003 L 22.391 21.427000000000003 C 22.409 21.426000000000002 22.43 21.437000000000005 22.444 21.458000000000002 C 22.465999999999998 21.492 22.465999999999998 21.55 22.465999999999998 21.597 C 22.466 21.647 22.466 21.688 22.444 21.722 z M 22.6 21.703 C 22.589000000000002 21.761 22.569000000000003 21.808 22.558 21.811 C 22.544 21.819 22.536 21.784 22.533 21.739 C 22.527 21.694 22.528000000000002 21.639 22.539 21.597 C 22.549000000000003 21.566000000000003 22.57 21.543000000000003 22.586000000000002 21.544 C 22.591 21.544 22.596000000000004 21.546 22.6 21.552 C 22.611 21.574 22.608 21.648 22.6 21.703 z M 26.994 25.445 C 27.006 25.444 27.017 25.445 27.028 25.448 C 27.072 25.465 27.105999999999998 25.515 27.134 25.551000000000002 C 27.161 25.590000000000003 27.184 25.617 27.201 25.651000000000003 C 27.221 25.682000000000002 27.229 25.723000000000003 27.212 25.723000000000003 C 27.198 25.723000000000003 27.151 25.680000000000003 27.087 25.632 C 27.026 25.582 26.948 25.528000000000002 26.937 25.494 C 26.929 25.466 26.959 25.448 26.994 25.445 z M 26.31 23.817 C 26.32 23.783 26.334999999999997 23.752 26.346999999999998 23.755 C 26.348999999999997 23.755 26.349999999999998 23.756 26.351999999999997 23.758 C 26.368999999999996 23.775 26.384999999999998 23.839 26.373999999999995 23.910999999999998 C 26.359999999999996 23.980999999999998 26.318999999999996 24.055999999999997 26.287999999999997 24.113999999999997 C 26.256999999999998 24.166999999999998 26.237999999999996 24.200999999999997 26.215999999999998 24.237 C 26.195999999999998 24.27 26.176 24.302999999999997 26.145999999999997 24.328 C 26.118 24.349999999999998 26.08 24.364 26.073999999999998 24.355999999999998 C 26.067999999999998 24.347999999999995 26.093999999999998 24.314999999999998 26.13 24.261999999999997 C 26.163 24.208999999999996 26.205 24.136999999999997 26.23 24.080999999999996 C 26.258 24.021999999999995 26.266000000000002 23.983999999999995 26.277 23.941999999999997 C 26.288 23.897 26.298 23.856 26.31 23.817 z M 26.103 23.942 C 26.122 23.906 26.148000000000003 23.889 26.159000000000002 23.839 C 26.17 23.788999999999998 26.165000000000003 23.705 26.162000000000003 23.641 C 26.157000000000004 23.573999999999998 26.155 23.532999999999998 26.178 23.505 C 26.189 23.491999999999997 26.207 23.485 26.223000000000003 23.485 C 26.239000000000004 23.485 26.255000000000003 23.492 26.265000000000004 23.508 C 26.284000000000002 23.538999999999998 26.279000000000003 23.605 26.265000000000004 23.683 C 26.248000000000005 23.758 26.220000000000002 23.839 26.201000000000004 23.903 C 26.184000000000005 23.964 26.173000000000005 24.003 26.151000000000003 24.028 C 26.126000000000005 24.052999999999997 26.087000000000003 24.064999999999998 26.073000000000004 24.044999999999998 C 26.062 24.026 26.081 23.973 26.103 23.942 z M 25.042 25.156 C 25 25.142 24.956000000000003 25.119999999999997 24.931 25.116999999999997 C 24.903000000000002 25.110999999999997 24.881 25.107999999999997 24.878 25.096999999999998 C 24.875 25.083 24.895 25.046999999999997 24.92 25.046999999999997 C 25.129 25.035999999999998 25.351000000000003 25.161999999999995 25.604000000000003 25.133999999999997 C 25.715000000000003 25.122999999999998 25.877000000000002 25.041999999999998 25.974000000000004 25.041999999999998 C 25.999000000000002 25.041999999999998 26.033000000000005 25.048 26.019000000000005 25.069999999999997 C 25.958000000000006 25.169999999999998 25.654000000000007 25.252999999999997 25.542000000000005 25.252999999999997 C 25.366 25.253 25.207 25.207 25.042 25.156 z M 26.105 25.316 C 26.052 25.349 25.932000000000002 25.384999999999998 25.857 25.401999999999997 C 25.787 25.418999999999997 25.756999999999998 25.418999999999997 25.718 25.412999999999997 C 25.679 25.406999999999996 25.626 25.397 25.598 25.391 C 25.57 25.384999999999998 25.564999999999998 25.384999999999998 25.564999999999998 25.366 C 25.564999999999998 25.349 25.570999999999998 25.318 25.592999999999996 25.31 C 25.612999999999996 25.301 25.650999999999996 25.316 25.703999999999997 25.326999999999998 C 25.753999999999998 25.334999999999997 25.820999999999998 25.334999999999997 25.874 25.326999999999998 C 25.93 25.316 25.971 25.299 26.012999999999998 25.276999999999997 C 26.052 25.256999999999998 26.090999999999998 25.233999999999998 26.116 25.24 C 26.143 25.245 26.155 25.279 26.105 25.316 z M 26.081 24.691 C 26.073 24.669 26.102999999999998 24.633 26.128 24.633 C 26.15 24.633 26.165 24.668 26.151 24.691 C 26.135 24.71 26.09 24.707 26.081 24.691 z M 26.249 24.473 C 26.276999999999997 24.433999999999997 26.288 24.395999999999997 26.313 24.368 C 26.328999999999997 24.351 26.346999999999998 24.337 26.358 24.337 C 26.365000000000002 24.337 26.369 24.341 26.369 24.351 C 26.369 24.372999999999998 26.33 24.442999999999998 26.305 24.493 C 26.277 24.543 26.262999999999998 24.575999999999997 26.235 24.59 C 26.213 24.601 26.179 24.593 26.182 24.568 C 26.184 24.546 26.223 24.509 26.249 24.473 z M 26.302 24.839 C 26.271 24.875 26.244 24.912 26.216 24.916999999999998 C 26.191000000000003 24.924999999999997 26.168000000000003 24.906 26.185000000000002 24.863999999999997 C 26.204 24.827999999999996 26.267000000000003 24.770999999999997 26.333000000000002 24.691 C 26.400000000000002 24.607 26.477 24.503 26.547 24.394 C 26.55 24.404999999999998 26.549 24.412999999999997 26.538 24.441 C 26.53 24.465999999999998 26.512 24.505 26.486 24.558 C 26.461000000000002 24.611 26.429000000000002 24.675 26.398 24.722 C 26.368 24.772 26.335 24.803 26.302 24.839 z M 26.383 24.177 C 26.389 24.141 26.393 24.108999999999998 26.413 24.093 C 26.428 24.078 26.45 24.07 26.466 24.071 C 26.471 24.071 26.476000000000003 24.073 26.48 24.076 C 26.494 24.084 26.492 24.119 26.486 24.149 C 26.48 24.177 26.468 24.202 26.448 24.227 C 26.429000000000002 24.249 26.402 24.271 26.39 24.26 C 26.377 24.248 26.38 24.21 26.383 24.177 z M 26.834 24.88 C 26.837 24.922 26.809 24.983999999999998 26.77 25.067999999999998 C 26.726 25.148999999999997 26.666 25.246 26.625 25.284999999999997 C 26.586 25.323999999999998 26.564 25.298 26.578 25.253999999999998 C 26.593999999999998 25.203999999999997 26.649 25.131999999999998 26.686 25.078999999999997 C 26.722 25.025999999999996 26.739 24.985999999999997 26.747 24.944999999999997 C 26.758 24.902999999999995 26.762 24.853999999999996 26.778 24.839999999999996 C 26.781 24.837999999999997 26.782999999999998 24.835999999999995 26.785999999999998 24.834999999999997 C 26.807 24.829 26.832 24.846 26.834 24.88 z M 26.767 24.259 C 26.788999999999998 24.362000000000002 26.791 24.509 26.761 24.634 C 26.73 24.759 26.669999999999998 24.86 26.628 24.932 C 26.589 25.003999999999998 26.568 25.046999999999997 26.541 25.07 C 26.51 25.092 26.472 25.092 26.469 25.07 C 26.463 25.042 26.5 24.991 26.536 24.943 C 26.575000000000003 24.896 26.616 24.851000000000003 26.647000000000002 24.765 C 26.678 24.679000000000002 26.697000000000003 24.549 26.697000000000003 24.454 C 26.700000000000003 24.359 26.686000000000003 24.301000000000002 26.669000000000004 24.251 C 26.652000000000005 24.204 26.636000000000003 24.167 26.636000000000003 24.134 C 26.631000000000004 24.102 26.639000000000003 24.07 26.659000000000002 24.072 C 26.662000000000003 24.072 26.665000000000003 24.073 26.668000000000003 24.075 C 26.697 24.089 26.745 24.154 26.767 24.259 z M 26.666 23.637 C 26.669 23.695 26.672 23.736 26.666 23.775000000000002 C 26.66 23.811000000000003 26.650000000000002 23.844 26.633 23.861 C 26.616 23.878 26.590999999999998 23.877 26.576999999999998 23.855 C 26.563 23.833000000000002 26.561 23.788 26.561 23.727 C 26.561 23.674 26.563 23.602 26.555 23.511 C 26.547 23.422 26.522 23.314 26.497 23.238 C 26.469 23.166 26.432 23.124 26.399 23.085 C 26.368000000000002 23.046 26.336000000000002 23.004 26.319000000000003 22.968 C 26.299000000000003 22.929 26.299000000000003 22.889 26.316000000000003 22.884 C 26.318 22.883 26.320000000000004 22.883 26.322000000000003 22.882 C 26.337000000000003 22.881 26.358000000000004 22.901 26.384000000000004 22.926000000000002 C 26.412000000000003 22.948 26.440000000000005 22.974 26.487000000000005 23.057000000000002 C 26.532000000000007 23.14 26.597000000000005 23.283 26.628000000000004 23.391000000000002 C 26.664 23.502 26.666 23.576 26.666 23.637 z M 28.103 20.848 C 28.07 20.826 28.029 20.817 27.987000000000002 20.805999999999997 C 27.948 20.794999999999998 27.911 20.776999999999997 27.867 20.772 C 27.823 20.767 27.769000000000002 20.766 27.722 20.775 C 27.677 20.785999999999998 27.639000000000003 20.805 27.614 20.796999999999997 C 27.589000000000002 20.785999999999998 27.577 20.743999999999996 27.605 20.721999999999998 C 27.63 20.7 27.691 20.697 27.758 20.694 C 27.825 20.694 27.894 20.692 27.95 20.7 C 28.006 20.708 28.041999999999998 20.726 28.081 20.745 C 28.114 20.767 28.15 20.786 28.166999999999998 20.817 C 28.183999999999997 20.848 28.182 20.89 28.173 20.895 C 28.16 20.898 28.137 20.868 28.103 20.848 z M 28.174 20.647 C 28.152 20.644 28.121 20.634999999999998 28.06 20.63 C 28.003999999999998 20.622 27.918 20.613 27.868 20.590999999999998 C 27.820999999999998 20.570999999999998 27.805999999999997 20.534999999999997 27.82 20.512999999999998 C 27.827 20.499999999999996 27.841 20.491999999999997 27.862000000000002 20.49 C 27.883000000000003 20.487 27.912000000000003 20.49 27.948 20.499 C 28.02 20.520999999999997 28.125 20.576999999999998 28.214 20.644 C 28.205 20.65 28.193 20.65 28.174 20.647 z M 28.736 21.273 C 28.694 21.262 28.651 21.229 28.613 21.204 C 28.58 21.179000000000002 28.548 21.159 28.509999999999998 21.145 C 28.476999999999997 21.134 28.429 21.134999999999998 28.409999999999997 21.115 C 28.391 21.098 28.396999999999995 21.066 28.440999999999995 21.063 C 28.484999999999996 21.06 28.570999999999994 21.084 28.626999999999995 21.110999999999997 C 28.684999999999995 21.132999999999996 28.713999999999995 21.160999999999998 28.746999999999996 21.185999999999996 C 28.782999999999998 21.213999999999995 28.821999999999996 21.237999999999996 28.818999999999996 21.254999999999995 C 28.819 21.276 28.778 21.284 28.736 21.273 z M 28.878 21.184 C 28.839 21.17 28.786 21.12 28.744 21.084 C 28.698999999999998 21.053 28.664 21.031 28.622 21.02 C 28.58 21.003 28.53 20.995 28.519 20.973 C 28.506999999999998 20.953 28.523 20.927 28.566 20.926 C 28.572 20.926 28.579 20.926 28.586 20.927999999999997 C 28.644 20.935999999999996 28.741 20.987 28.808 21.031 C 28.878 21.073 28.919999999999998 21.113999999999997 28.928 21.145 C 28.939 21.176 28.914 21.195 28.878 21.184 z M 28.861 20.95 C 28.816 20.919999999999998 28.782 20.892 28.739 20.87 C 28.694 20.848000000000003 28.647000000000002 20.830000000000002 28.619 20.808 C 28.594 20.788 28.583 20.768 28.594 20.756 C 28.596 20.754 28.599 20.752 28.603 20.751 C 28.615000000000002 20.75 28.633000000000003 20.758000000000003 28.662000000000003 20.767 C 28.696 20.775 28.744000000000003 20.787 28.778000000000002 20.806 C 28.814000000000004 20.826 28.839000000000002 20.847 28.867 20.867 C 28.892 20.889 28.923000000000002 20.908 28.945 20.936 C 28.97 20.964 28.984 21.004 28.97 21.009 C 28.951 21.012 28.903 20.981 28.861 20.95 z" stroke-linecap="round" />
</g>
<g transform="matrix(1 0 0 1 -2.68 -1.33)" >
<path style="stroke: none; stroke-width: 1; stroke-dasharray: none; stroke-linecap: butt; stroke-dashoffset: 0; stroke-linejoin: miter; stroke-miterlimit: 4; fill: rgb(250,250,250); fill-rule: nonzero; opacity: 1;" transform=" translate(-21.32, -22.67)" d="M 24.624 25.228 C 24.581999999999997 25.201 24.532 25.185000000000002 24.482 25.182000000000002 C 24.457 25.179000000000002 24.432 25.188000000000002 24.409 25.197000000000003 C 24.375 25.212000000000003 24.337999999999997 25.216 24.301 25.218000000000004 C 24.279 25.217000000000002 24.255999999999997 25.219000000000005 24.235999999999997 25.229000000000003 C 24.211 25.242000000000004 24.183999999999997 25.257 24.168999999999997 25.282000000000004 C 24.153 25.302000000000003 24.15 25.328000000000003 24.157999999999998 25.352000000000004 C 24.171 25.361000000000004 24.182999999999996 25.373000000000005 24.198999999999998 25.378000000000004 C 24.232999999999997 25.389000000000003 24.267 25.401000000000003 24.301 25.413000000000004 C 24.328999999999997 25.418000000000003 24.358999999999998 25.416000000000004 24.386999999999997 25.421000000000003 C 24.445999999999998 25.421000000000003 24.505999999999997 25.419000000000004 24.564999999999998 25.419000000000004 C 24.589 25.421000000000003 24.612999999999996 25.417000000000005 24.634999999999998 25.407000000000004 C 24.656 25.404000000000003 24.668999999999997 25.385000000000005 24.674 25.366000000000003 C 24.684 25.344000000000005 24.683 25.318000000000005 24.669999999999998 25.297000000000004 C 24.657 25.275 24.644 25.248 24.624 25.228 z M 19.919 15.856 C 19.939 15.836 19.951 15.81 19.964000000000002 15.785 C 19.983 15.752 19.996000000000002 15.713000000000001 19.985000000000003 15.675 C 19.983000000000004 15.645000000000001 19.986000000000004 15.612 19.970000000000002 15.585 C 19.961000000000002 15.572000000000001 19.944000000000003 15.575000000000001 19.930000000000003 15.575000000000001 L 19.907000000000004 15.590000000000002 C 19.896000000000004 15.599000000000002 19.889000000000003 15.612000000000002 19.880000000000003 15.622000000000002 C 19.871000000000002 15.631000000000002 19.861000000000004 15.639000000000001 19.854000000000003 15.650000000000002 C 19.844 15.666000000000002 19.837000000000003 15.683000000000002 19.830000000000002 15.700000000000003 C 19.817 15.730000000000002 19.821 15.763000000000003 19.823 15.794000000000002 C 19.822 15.820000000000002 19.838 15.846000000000002 19.863 15.855000000000002 C 19.882 15.859 19.903 15.867 19.919 15.856 z M 18.544 18.362 L 18.544 18.362 L 18.544 18.362 z M 18.351 18.576 C 18.38 18.561 18.404 18.539 18.424 18.514 C 18.442 18.491 18.468 18.474999999999998 18.486 18.451999999999998 C 18.507 18.423 18.535 18.398 18.543 18.362 C 18.519 18.362 18.494 18.366999999999997 18.473 18.38 C 18.439999999999998 18.398 18.427999999999997 18.438 18.398 18.459 C 18.387999999999998 18.48 18.372 18.497 18.358 18.515 C 18.35 18.529 18.334 18.534 18.318 18.534 C 18.298000000000002 18.532999999999998 18.28 18.541 18.261000000000003 18.544 C 18.237000000000002 18.548000000000002 18.212000000000003 18.552 18.188000000000002 18.547 C 18.173000000000002 18.544 18.152 18.555 18.158 18.573 C 18.166 18.579 18.173000000000002 18.586000000000002 18.181 18.592 C 18.197 18.608999999999998 18.223000000000003 18.604 18.244 18.607 C 18.282 18.605 18.318 18.594 18.351 18.576 z M 16.659 21.51 C 16.753 21.459000000000003 16.842 21.388 16.954 21.385 C 17.022000000000002 21.388 17.096 21.399 17.162 21.425 C 17.265 21.454 17.362 21.503 17.433 21.586000000000002 C 17.457 21.628000000000004 17.482 21.662000000000003 17.509 21.702 C 17.526 21.75 17.57 21.776000000000003 17.589 21.822000000000003 C 17.642 21.922000000000004 17.723 22.006000000000004 17.808 22.082000000000004 C 17.851 22.115000000000006 17.87 22.167000000000005 17.901 22.207000000000004 C 17.973 22.281000000000006 18.06 22.341000000000005 18.137 22.411000000000005 C 18.173000000000002 22.457000000000004 18.273 22.484000000000005 18.309 22.446000000000005 C 18.316000000000003 22.378000000000004 18.229000000000003 22.381000000000004 18.185000000000002 22.358000000000004 C 18.139000000000003 22.330000000000005 18.1 22.287000000000003 18.079 22.237000000000005 C 18.066 22.159000000000006 17.958000000000002 22.156000000000006 17.965 22.071000000000005 C 18.072 22.074000000000005 18.163 22.007000000000005 18.23 21.932000000000006 C 18.363 21.878000000000007 18.196 22.049000000000007 18.31 22.029000000000007 C 18.348 21.974000000000007 18.337999999999997 21.895000000000007 18.413 21.875000000000007 C 18.454 21.79200000000001 18.454 21.69900000000001 18.454 21.608000000000008 C 18.443 21.54500000000001 18.46 21.45800000000001 18.395 21.421000000000006 C 18.323 21.321000000000005 18.195 21.305000000000007 18.094 21.250000000000007 C 17.978 21.184000000000008 17.847 21.15500000000001 17.725 21.101000000000006 C 17.646 21.086000000000006 17.6 21.018000000000008 17.555 20.957000000000008 C 17.515 20.933000000000007 17.519 20.878000000000007 17.476 20.858000000000008 C 17.419 20.788000000000007 17.322 20.805000000000007 17.243 20.81800000000001 C 17.131999999999998 20.84500000000001 17.019 20.84400000000001 16.907999999999998 20.808000000000007 C 16.840999999999998 20.777000000000008 16.769999999999996 20.795000000000005 16.703 20.81800000000001 C 16.637999999999998 20.84200000000001 16.604 20.90600000000001 16.566 20.962000000000007 C 16.549 21.03000000000001 16.5 21.083000000000006 16.479 21.148000000000007 C 16.451 21.202000000000005 16.397 21.243000000000006 16.366 21.294000000000008 C 16.293 21.389000000000006 16.21 21.47800000000001 16.136 21.572000000000006 C 16.055 21.673000000000005 15.969 21.771000000000008 15.872 21.858000000000008 C 15.82 21.915000000000006 15.753 21.95800000000001 15.701 22.014000000000006 C 15.618 22.053000000000008 15.554 22.121000000000006 15.484 22.179000000000006 C 15.453 22.217000000000006 15.412 22.240000000000006 15.371 22.260000000000005 L 15.377 22.257000000000005 C 15.367 22.266000000000005 15.353000000000002 22.273000000000003 15.350000000000001 22.289000000000005 C 15.285000000000002 22.336000000000006 15.285000000000002 22.420000000000005 15.262000000000002 22.490000000000006 C 15.213000000000003 22.532000000000007 15.217000000000002 22.600000000000005 15.228000000000002 22.659000000000006 C 15.273000000000001 22.740000000000006 15.286000000000001 22.833000000000006 15.288000000000002 22.924000000000007 C 15.287000000000003 23.054000000000006 15.284000000000002 23.184000000000008 15.266000000000002 23.313000000000006 C 15.253000000000002 23.387000000000008 15.365000000000002 23.498000000000005 15.264000000000001 23.540000000000006 C 15.211 23.651000000000007 15.389000000000001 23.657000000000007 15.404000000000002 23.546000000000006 C 15.442000000000002 23.507000000000005 15.493000000000002 23.472000000000005 15.525000000000002 23.424000000000007 C 15.566000000000003 23.311000000000007 15.611000000000002 23.197000000000006 15.663000000000002 23.089000000000006 C 15.713000000000003 23.035000000000007 15.815000000000001 22.896000000000004 15.862000000000002 22.971000000000007 C 15.811000000000002 22.999000000000006 15.770000000000001 23.03900000000001 15.738000000000001 23.086000000000006 C 15.722000000000001 23.136000000000006 15.676000000000002 23.169000000000004 15.667000000000002 23.222000000000005 C 15.623000000000001 23.322000000000006 15.592000000000002 23.431000000000004 15.536000000000001 23.524000000000004 C 15.499 23.569000000000006 15.448000000000002 23.607000000000003 15.392000000000001 23.627000000000006 C 15.328000000000001 23.662000000000006 15.410000000000002 23.725000000000005 15.452000000000002 23.731000000000005 C 15.488000000000001 23.759000000000004 15.518000000000002 23.793000000000006 15.560000000000002 23.810000000000006 C 15.606000000000002 23.855000000000008 15.665000000000003 23.881000000000007 15.720000000000002 23.915000000000006 C 15.775000000000002 23.937000000000005 15.854000000000003 23.995000000000005 15.896000000000003 23.924000000000007 C 15.932000000000002 23.859000000000005 15.943000000000003 23.781000000000006 15.976000000000003 23.713000000000008 C 16.004 23.591000000000008 16.052000000000003 23.47000000000001 16.049000000000003 23.343000000000007 C 16.078000000000003 23.214000000000006 16.085000000000004 23.066000000000006 16.005000000000003 22.953000000000007 C 15.982000000000003 22.906000000000006 15.925000000000002 22.892000000000007 15.897000000000002 22.848000000000006 C 15.864000000000003 22.768000000000008 15.761000000000003 22.850000000000005 15.718000000000002 22.799000000000007 C 15.668000000000001 22.681000000000008 15.689000000000002 22.537000000000006 15.752000000000002 22.426000000000005 C 15.779000000000002 22.363000000000007 15.841000000000003 22.324000000000005 15.892000000000003 22.284000000000006 C 15.952000000000004 22.278000000000006 16.027000000000005 22.276000000000007 16.079000000000004 22.316000000000006 C 16.125000000000004 22.386000000000006 16.195000000000004 22.369000000000007 16.233000000000004 22.300000000000008 C 16.257000000000005 22.25400000000001 16.292000000000005 22.215000000000007 16.327000000000005 22.180000000000007 C 16.396000000000004 22.050000000000008 16.455000000000005 21.916000000000007 16.510000000000005 21.78000000000001 C 16.551 21.685 16.594 21.591 16.659 21.51 z M 18.239 21.683 C 18.231 21.705 18.183 21.725 18.139 21.747 C 18.095 21.769 18.055 21.792 18.022 21.797 L 18.022 21.797 C 17.991 21.8 17.968999999999998 21.786 17.958 21.778000000000002 C 17.947 21.770000000000003 17.947 21.770000000000003 17.968999999999998 21.759000000000004 C 17.988999999999997 21.751000000000005 18.032999999999998 21.728000000000005 18.072 21.703000000000003 C 18.111 21.678000000000004 18.147 21.645000000000003 18.183 21.642000000000003 C 18.214 21.636 18.247 21.661 18.239 21.683 z M 17.941 21.569 C 17.971999999999998 21.544 18.002 21.519 18.041 21.505 C 18.080000000000002 21.494 18.127 21.494 18.133 21.505 C 18.136 21.522 18.096999999999998 21.552 18.063 21.575 C 18.029999999999998 21.602999999999998 17.999 21.62 17.965999999999998 21.628 L 17.965999999999998 21.628 C 17.929999999999996 21.636 17.889999999999997 21.639 17.884999999999998 21.628 C 17.882 21.616 17.913 21.594 17.941 21.569 z M 16.821 21.037 L 16.821 21.037 C 16.902 21.012 17.016000000000002 21.028 17.108 21.015 C 17.2 21.004 17.278000000000002 20.965 17.311 20.979 C 17.344 20.993 17.339 21.054 17.33 21.104 C 17.322 21.154 17.308 21.189999999999998 17.241 21.188 C 17.174 21.185 17.049 21.148999999999997 16.96 21.141 C 16.871000000000002 21.133 16.815 21.154999999999998 16.765 21.165999999999997 C 16.718 21.179999999999996 16.676000000000002 21.184999999999995 16.681 21.154999999999998 C 16.686 21.125 16.737 21.062 16.821 21.037 z M 15.501 22.602 C 15.478 22.63 15.456999999999999 22.66 15.426 22.68 C 15.392 22.703 15.349 22.713 15.309 22.708 C 15.290999999999999 22.705 15.277999999999999 22.683 15.287999999999998 22.665999999999997 C 15.296999999999999 22.650999999999996 15.315999999999999 22.648999999999997 15.331999999999999 22.650999999999996 C 15.344999999999999 22.652999999999995 15.358999999999998 22.651999999999997 15.371999999999998 22.647999999999996 C 15.392999999999999 22.641999999999996 15.412999999999998 22.633999999999997 15.429999999999998 22.620999999999995 C 15.441999999999998 22.607999999999993 15.453999999999997 22.591999999999995 15.468999999999998 22.581999999999994 C 15.481999999999998 22.568999999999992 15.490999999999998 22.552999999999994 15.503999999999998 22.539999999999992 C 15.511999999999997 22.528999999999993 15.517999999999997 22.514999999999993 15.526999999999997 22.50399999999999 L 15.526999999999997 22.50399999999999 L 15.546999999999997 22.50399999999999 C 15.556999999999997 22.51599999999999 15.559999999999997 22.533999999999992 15.551999999999998 22.54699999999999 C 15.542 22.572 15.515 22.581 15.501 22.602 z M 27.352 28.191 C 27.387 28.147 27.421 28.104 27.424 28.044999999999998 C 27.405 27.948999999999998 27.387 27.849999999999998 27.354 27.758 C 27.304 27.707 27.288 27.634 27.243 27.579 C 27.195 27.541 27.185 27.473 27.154 27.424 C 27.108 27.328 27.095 27.217 27.059 27.117 C 27.044 26.98 27.015 26.844 26.975 26.711000000000002 C 26.98 26.625000000000004 26.879 26.575000000000003 26.845000000000002 26.662000000000003 C 26.820000000000004 26.742 26.868000000000002 26.820000000000004 26.884000000000004 26.899 C 26.905000000000005 26.946 26.861000000000004 27.001 26.846000000000004 26.93 C 26.816000000000003 26.874 26.833000000000002 26.773 26.756000000000004 26.759999999999998 C 26.703000000000003 26.767 26.688000000000002 26.712999999999997 26.662000000000003 26.677999999999997 C 26.640000000000004 26.624 26.602000000000004 26.580999999999996 26.551000000000002 26.554 C 26.524 26.529999999999998 26.491000000000003 26.506 26.46 26.491 C 26.416 26.436 26.344 26.485 26.288 26.489 C 26.223 26.516000000000002 26.3 26.584 26.314 26.624000000000002 C 26.354 26.711000000000002 26.376 26.806 26.416 26.893 C 26.437 26.993000000000002 26.478 27.086000000000002 26.512 27.181 C 26.534 27.301000000000002 26.568 27.419 26.59 27.54 C 26.596 27.622 26.598 27.701999999999998 26.592 27.782 C 26.558 27.844 26.561999999999998 27.926 26.613 27.977 C 26.660999999999998 27.994 26.69 28.046 26.738 28.058 C 26.778 28.078 26.816 28.058 26.858 28.06 L 26.858 28.061 C 26.854 28.125 26.783 28.153 26.731 28.173 C 26.682000000000002 28.201999999999998 26.659000000000002 28.244 26.594 28.226999999999997 C 26.603 28.176999999999996 26.617 28.045999999999996 26.544 28.120999999999995 C 26.514 28.151999999999994 26.493000000000002 28.182999999999996 26.472 28.218999999999994 C 26.419 28.306999999999995 26.364 28.393999999999995 26.312 28.482999999999993 C 26.267 28.539999999999992 26.253 28.615999999999993 26.19 28.657999999999994 C 26.157 28.682999999999993 26.126 28.703999999999994 26.094 28.728999999999996 C 26.029 28.759999999999994 25.975 28.812999999999995 25.903000000000002 28.827999999999996 C 25.826 28.866999999999997 25.860000000000003 28.967999999999996 25.837000000000003 29.035999999999994 C 25.792 29.069999999999993 25.808000000000003 29.129999999999995 25.783000000000005 29.175999999999995 C 25.764000000000006 29.233999999999995 25.732000000000006 29.284999999999997 25.699000000000005 29.335999999999995 C 25.634000000000004 29.443999999999996 25.569000000000006 29.557999999999996 25.561000000000003 29.685999999999996 C 25.529000000000003 29.789999999999996 25.666000000000004 29.735999999999997 25.723000000000003 29.752999999999997 C 25.812 29.763999999999996 25.902 29.749999999999996 25.991000000000003 29.739999999999995 C 26.109 29.719999999999995 26.230000000000004 29.706999999999994 26.344000000000005 29.670999999999996 C 26.436000000000003 29.645999999999997 26.529000000000003 29.618999999999996 26.615000000000006 29.577999999999996 C 26.691000000000006 29.558999999999997 26.733000000000004 29.488999999999997 26.792000000000005 29.445999999999994 C 26.840000000000003 29.409999999999993 26.818000000000005 29.356999999999996 26.801000000000005 29.310999999999993 C 26.759000000000004 29.250999999999994 26.703000000000007 29.20499999999999 26.634000000000004 29.17899999999999 C 26.582000000000004 29.13699999999999 26.516000000000005 29.13499999999999 26.453000000000003 29.13399999999999 C 26.320000000000004 29.10499999999999 26.180000000000003 29.16799999999999 26.051000000000002 29.10999999999999 C 25.976000000000003 29.03399999999999 26.179000000000002 29.108999999999988 26.231 29.09099999999999 C 26.386000000000003 29.07399999999999 26.549000000000003 29.08499999999999 26.696 29.14099999999999 C 26.779 29.205999999999992 26.843 29.11999999999999 26.773000000000003 29.04099999999999 C 26.748000000000005 28.98299999999999 26.686000000000003 28.966999999999988 26.631000000000004 28.94999999999999 C 26.603000000000005 28.88099999999999 26.731000000000005 28.948999999999987 26.754000000000005 28.90199999999999 C 26.767000000000007 28.84099999999999 26.788000000000004 28.78099999999999 26.808000000000003 28.72199999999999 C 26.819000000000003 28.67199999999999 26.877000000000002 28.65099999999999 26.887000000000004 28.60199999999999 C 26.927000000000003 28.56699999999999 26.928000000000004 28.50799999999999 26.964000000000006 28.47099999999999 C 27.015000000000004 28.39499999999999 26.961000000000006 28.30199999999999 27.006000000000007 28.22499999999999 C 27.050000000000008 28.129999999999992 27.09400000000001 28.25399999999999 27.157000000000007 28.23599999999999 C 27.227 28.264 27.287 28.209 27.352 28.191 z M 22.196 20.6 C 22.193 20.593 22.188000000000002 20.587 22.184 20.581000000000003 C 22.173000000000002 20.568 22.161 20.557000000000002 22.150000000000002 20.544000000000004 C 22.139000000000003 20.534000000000002 22.127000000000002 20.525000000000006 22.116000000000003 20.515000000000004 C 22.106 20.506000000000004 22.094000000000005 20.499000000000006 22.084000000000003 20.490000000000006 C 22.110000000000003 20.538000000000004 22.140000000000004 20.584000000000007 22.164 20.633000000000006 C 22.183 20.673000000000005 22.199 20.715000000000007 22.208000000000002 20.758000000000006 C 22.208000000000002 20.767000000000007 22.211000000000002 20.763000000000005 22.213 20.758000000000006 C 22.217000000000002 20.747000000000007 22.219 20.735000000000007 22.223000000000003 20.723000000000006 C 22.231 20.703000000000007 22.228 20.680000000000007 22.221000000000004 20.660000000000007 C 22.218000000000004 20.648000000000007 22.211000000000002 20.63800000000001 22.207000000000004 20.62600000000001 C 22.204 20.618 22.201 20.609 22.196 20.6 z M 22.014 21.669 L 22.014 21.669 L 22.014 21.668 L 22.014 21.669 L 22.014 21.669 z" stroke-linecap="round" />
</g>
</g>
</g>
</svg>